ply
format ascii 1.0
comment Exported by Aspose.3D 23.7.0
element vertex 360
property float x
property float y
property float z
property float nx
property float ny
property float nz
element face 712
property list uchar int vertex_index
end_header
-135 10 -5 0.569974490574428 0.42857142857142855 -0.020330690911837986
-135 10 5 0.28522958925792147 0.7142857142857142 0.0067768969706126616
-135 0 5 0.569974490574428 -0.42857142857142855 0.020330690911837986
-135 0 -5 0.28522958925792147 -0.7142857142857142 -0.0067768969706126616
-135.05088806152344 0 -5.711574077606201 0.5939066767692566 -0.4 -0.06622045040130616
-135.05088806152344 10 -5.711574077606201 0.5885057330131531 0.4 -0.1037847936153412
-135.20252990722656 0 -6.408662796020508 0.5784374117851258 -0.4 -0.15006815791130068
-135.20252990722656 10 -6.408662796020508 0.5677454829216003 0.4 -0.1864815205335617
-135.45184326171875 0 -7.077075004577637 0.5511928319931031 -0.4 -0.23086091876029968
-135.45184326171875 10 -7.077075004577637 0.5354275584220887 0.4 -0.2653820216655731
-135.79373168945312 0 -7.703204154968262 0.5127275466918946 -0.4 -0.3069540023803711
-135.79373168945312 10 -7.703204154968262 0.49220989942550664 0.4 -0.33888009190559387
-136.22125244140625 0 -8.274303436279297 0.38652052481969196 -0.5 -0.31399865945180255
-136.22125244140625 10 -8.274303436279297 0.2438734769821167 0.6666666666666666 -0.22526642349031234
-136.72569274902344 0 -8.77874755859375 0.40547956228256227 -0.4 -0.4389722585678101
-136.72569274902344 10 -8.77874755859375 0.47099798917770386 0.25 -0.579780787229538
-137.2967987060547 0 -9.206267356872559 0.33888009190559387 -0.4 -0.49220989942550664
-137.2967987060547 10 -9.206267356872559 0.3069540023803711 0.4 -0.5127275466918946
-137.9229278564453 0 -9.5481595993042 0.2653820216655731 -0.4 -0.5354275584220887
-137.9229278564453 10 -9.5481595993042 0.23086091876029968 0.4 -0.5511928319931031
-138.59133911132812 0 -9.797465324401855 0.23310190066695213 -0.25 -0.7096818536520004
-138.59133911132812 10 -9.797465324401855 0.15006815791130068 0.4 -0.5784374117851258
-139.28842163085938 0 -9.94910717010498 0.06486549600958824 -0.625 -0.3678160831332207
-139.28842163085938 10 -9.94910717010498 0.06622045040130616 0.4 -0.5939066767692566
-140 0 -10 0.014231483638286592 -0.7000000000000001 -0.2989821434020996
-140 10 -10 0.004312570799480785 0.7272727272727273 -0.27241882952776825
-160.71157836914062 0 -9.94910717010498 -0.041387781500816345 -0.625 -0.37119167298078537
-162.7032012939453 0 -9.206267356872559 -0.3069540023803711 -0.4 -0.5127275466918946
-162.0770721435547 0 -9.5481595993042 -0.23086091876029968 -0.4 -0.5511928319931031
-163.77874755859375 0 -8.274303436279297 -0.36581021547317505 -0.5 -0.3378996352354685
-163.27430725097656 0 -8.77874755859375 -0.3767983913421631 -0.4 -0.46382462978363037
-160 0 10 -0.010947295106374292 -0.6923076923076923 0.3069093410785382
-164.54815673828125 0 7.077075004577637 -0.5511928319931031 -0.4 0.23086091876029968
-164.79747009277344 0 6.408662796020508 -0.5784374117851258 -0.4 0.15006815791130068
-160.71157836914062 0 9.94910717010498 -0.08648732801278432 -0.5 0.49042144417762756
-161.40866088867188 0 9.797465324401855 -0.23310190066695213 -0.25 0.7096818536520004
-162.0770721435547 0 9.5481595993042 -0.2653820216655731 -0.4 0.5354275584220887
-161.40866088867188 0 -9.797465324401855 -0.18758519738912582 -0.25 -0.7230467647314072
-160 0 -10 -0.004312570799480785 -0.7272727272727273 -0.27241882952776825
-164.54815673828125 0 -7.077075004577637 -0.5354275584220887 -0.4 -0.2653820216655731
-164.20626831054688 0 -7.703204154968262 -0.49220989942550664 -0.4 -0.33888009190559387
-164.94911193847656 0 -5.711574077606201 -0.5885057330131531 -0.4 -0.1037847936153412
-164.79747009277344 0 -6.408662796020508 -0.5677454829216003 -0.4 -0.1864815205335617
-164.94911193847656 0 5.711574077606201 -0.5939066767692566 -0.4 0.06622045040130616
-163.77874755859375 0 8.274303436279297 -0.46382462978363037 -0.4 0.3767983913421631
-164.20626831054688 0 7.703204154968262 -0.5127275466918946 -0.4 0.3069540023803711
-162.7032012939453 0 9.206267356872559 -0.2824000765879949 -0.5 0.4101749161879221
-163.27430725097656 0 8.77874755859375 -0.40547956228256227 -0.4 0.4389722585678101
-139.28842163085938 0 9.94910717010498 0.05518370866775513 -0.5 0.4949222306410471
-137.2967987060547 0 9.206267356872559 0.2557950019836426 -0.5 0.42727295557657874
-137.9229278564453 0 9.5481595993042 0.23086091876029968 -0.4 0.5511928319931031
-140 0 10 0.003953189899524058 -0.8333333333333333 0.16638392706712085
-135.05088806152344 0 5.711574077606201 0.5885057330131531 -0.4 0.1037847936153412
-135.20252990722656 0 6.408662796020508 0.5677454829216003 -0.4 0.1864815205335617
-165 0 -5 -0.49830357233683265 -0.5 -0.023719139397144318
-138.59133911132812 0 9.797465324401855 0.18758519738912582 -0.25 0.7230467647314072
-136.22125244140625 0 8.274303436279297 0.4389722585678101 -0.4 0.40547956228256227
-136.72569274902344 0 8.77874755859375 0.3767983913421631 -0.4 0.46382462978363037
-135.45184326171875 0 7.077075004577637 0.5354275584220887 -0.4 0.2653820216655731
-135.79373168945312 0 7.703204154968262 0.49220989942550664 -0.4 0.33888009190559387
-165 0 5 -0.3745758906006813 -0.625 0.005929784849286079
-163.77874755859375 10 -8.274303436279297 -0.25768034987979466 0.6666666666666666 -0.20933243963453504
-162.0770721435547 10 -9.5481595993042 -0.2653820216655731 0.4 -0.5354275584220887
-162.7032012939453 10 -9.206267356872559 -0.33888009190559387 0.4 -0.49220989942550664
-160.71157836914062 10 -9.94910717010498 -0.1037847936153412 0.4 -0.5885057330131531
-161.40866088867188 10 -9.797465324401855 -0.1864815205335617 0.4 -0.5677454829216003
-139.28842163085938 10 9.94910717010498 0.08648732801278432 0.5 0.49042144417762756
-138.59133911132812 10 9.797465324401855 0.23310190066695213 0.25 0.7096818536520004
-137.9229278564453 10 9.5481595993042 0.2653820216655731 0.4 0.5354275584220887
-140 10 10 0.01094729510637431 0.6923076923076923 0.3069093410785382
-137.2967987060547 10 9.206267356872559 0.2824000765879949 0.5 0.4101749161879221
-136.72569274902344 10 8.77874755859375 0.40547956228256227 0.4 0.4389722585678101
-160.71157836914062 10 9.94910717010498 -0.05518370866775513 0.5 0.4949222306410471
-162.7032012939453 10 9.206267356872559 -0.2557950019836426 0.5 0.42727295557657874
-162.0770721435547 10 9.5481595993042 -0.23086091876029968 0.4 0.5511928319931031
-160 10 -10 -0.014231483638286592 0.7000000000000001 -0.2989821434020996
-164.54815673828125 10 -7.077075004577637 -0.5511928319931031 0.4 -0.23086091876029968
-164.79747009277344 10 -6.408662796020508 -0.5784374117851258 0.4 -0.15006815791130068
-164.20626831054688 10 -7.703204154968262 -0.5127275466918946 0.4 -0.3069540023803711
-135.45184326171875 10 7.077075004577637 0.5511928319931031 0.4 0.23086091876029968
-135.20252990722656 10 6.408662796020508 0.5784374117851258 0.4 0.15006815791130068
-136.22125244140625 10 8.274303436279297 0.46382462978363037 0.4 0.3767983913421631
-135.79373168945312 10 7.703204154968262 0.5127275466918946 0.4 0.3069540023803711
-161.40866088867188 10 9.797465324401855 -0.18758519738912582 0.25 0.7230467647314072
-160 10 10 -0.0039531898995240474 0.8333333333333333 0.16638392706712085
-163.77874755859375 10 8.274303436279297 -0.4389722585678101 0.4 0.40547956228256227
-163.27430725097656 10 8.77874755859375 -0.3767983913421631 0.4 0.46382462978363037
-164.94911193847656 10 -5.711574077606201 -0.5939066767692566 0.4 -0.06622045040130616
-163.27430725097656 10 -8.77874755859375 -0.5068494528532028 0.25 -0.5487153232097626
-135.05088806152344 10 5.711574077606201 0.5939066767692566 0.4 0.06622045040130616
-164.54815673828125 10 7.077075004577637 -0.5354275584220887 0.4 0.2653820216655731
-164.20626831054688 10 7.703204154968262 -0.49220989942550664 0.4 0.33888009190559387
-164.94911193847656 10 5.711574077606201 -0.5885057330131531 0.4 0.1037847936153412
-164.79747009277344 10 6.408662796020508 -0.5677454829216003 0.4 0.1864815205335617
-165 10 -5 -0.3745758906006813 0.625 -0.005929784849286079
-165 10 5 -0.49830357233683265 0.5 0.023719139397144318
0 -7.5 -12.5 1 0 0
0 -10 -10 0.5 -0.49365663528442383 -0.03189028427004814
0 -9.61939811706543 -11.913416862487793 0.4 -0.5551002979278564 -0.17470159232616425
0 -8.535533905029297 -13.535533905029297 0.4 -0.4459903836250305 -0.37383090853691103
0 -6.913417339324951 -14.61939811706543 0.4 -0.2689824938774109 -0.5160478591918946
0 -5 -15 0.5 -0.06378056854009628 -0.4873132606347402
0 -10 -2.220446049250313E-14 0.5555555555555556 -0.4444444444444444 0
0 -7.5 12.5 1 0 0
0 -10 10 0.4 -0.5847759127616883 0.07653668224811555
0 0 -15 0.6000000000000001 0 -0.4
0 -5 15 0.6000000000000001 -0.025512227416038515 0.3949253082275391
0 -6.913417339324951 14.61939811706543 0.4 -0.17470159232616425 0.5551002979278564
0 -8.535533905029297 13.535533905029297 0.4 -0.37383090853691103 0.4459903836250305
0 -9.61939811706543 11.913416862487793 0.4 -0.5160478591918946 0.2689824938774109
0 0 15 0.5555555555555556 0 0.4444444444444444
0 10 10 0.5 0.4873132606347402 0.06378056854009628
0 7.5 12.5 1 0 0
0 9.61939811706543 11.913416862487793 0.5 0.45021873712539673 0.18648670613765717
0 8.535533905029297 13.535533905029297 0.4 0.4459903836250305 0.37383090853691103
0 6.913417339324951 14.61939811706543 0.4 0.2689824938774109 0.5160478591918946
0 5 15 0.4 0.07653668224811555 0.5847759127616883
0 10 0 0.5555555555555556 0.4444444444444444 0
0 5 -15 0.6000000000000001 0.025512227416038515 -0.3949253082275391
0 7.5 -12.5 1 0 0
0 6.913417339324951 -14.61939811706543 0.4 0.17470159232616425 -0.5551002979278564
0 8.535533905029297 -13.535533905029297 0.4 0.37383090853691103 -0.4459903836250305
0 9.61939811706543 -11.913416862487793 0.4 0.5160478591918946 -0.2689824938774109
0 10 -10 0.4 0.5847759127616883 -0.07653668224811555
-195 0 -15 -0.07520964555442333 0 -0.987928494811058
-140.00010681152344 5 -15 0 0.09764599906546728 -0.9822276490075247
-195 5 -15 -0.08247922857602437 0.08247922857602437 -0.982288274500105
-59.999900817871094 -5 -15 0 -0.07139995321631432 -0.9877234200636545
-195 -5 -15 -0.08247922857602437 -0.08247922857602437 -0.982288274500105
-59.999900817871094 -6.913417339324951 -14.61939811706543 0 -0.3400759611810957 -0.9162541202136448
-195 -6.913417339324951 -14.61939811706543 -0.026186242699623108 -0.3775049209594727 -0.9197004675865174
-195 -6.277440547943115 -14.745901107788086 -0.008931639790534974 -0.22202097028493883 -0.9637017130851746
-59.999900817871094 -8.535533905029297 -13.535533905029297 0 -0.6613278431551797 -0.7128703338759286
-195 -8.535533905029297 -13.535533905029297 -0.05428754538297653 -0.7146682262420655 -0.6730119347572328
-195 -7.452571868896484 -14.259145736694336 -0.03471357996265093 -0.5380670577287674 -0.8260981639226277
-59.999900817871094 -9.61939811706543 -11.913416862487793 0 -0.8883595211165292 -0.40741945803165436
-195 -9.61939811706543 -11.913416862487793 -0.0632191836833954 -0.9113775372505188 -0.38095239996910096
-195 -9.259145736694336 -12.452571868896484 -0.029885849356651308 -0.8353295087814332 -0.5236159980297089
-59.999900817871094 -10 -10 0 -0.9822276490075247 -0.09764599906546728
-195 -10 -10 -0.04331936314702034 -0.9885437488555908 -0.04331936314702034
-195 -9.745901107788086 -11.277441024780273 -0.05665735403696696 -0.9603662987550099 -0.20043715586264926
-140.00010681152344 6.913417339324951 -14.61939811706543 0 0.40741945803165436 -0.8883595211165292
-140.00010681152344 8.535533905029297 -13.535533905029297 0 0.7128703338759286 -0.6613278431551797
-140.00010681152344 9.61939811706543 -11.913416862487793 0 0.9162541202136448 -0.3400759611810957
-140.00010681152344 10 -10 0 0.9877234200636545 -0.07139995321631432
-195 6.277440547943115 -14.745901107788086 -0.008931639790534974 0.22202096432447435 -0.9637017011642457
-195 7.452571868896484 -14.259145736694336 -0.017254602909088135 0.521344393491745 -0.8392640471458436
-195 6.913417339324951 -14.61939811706543 -0.026186242699623108 0.3775049149990082 -0.9197004795074464
-195 8.535533905029297 -13.535533905029297 -0.041656295955181125 0.6675277709960938 -0.721815299987793
-195 9.259145736694336 -12.452571868896484 -0.04523962115248044 0.820142259200414 -0.5426371892293294
-195 9.745901107788086 -11.277441024780273 -0.03333333432674408 0.9593133211135865 -0.22319684773683549
-195 9.61939811706543 -11.913416862487793 -0.0632191836833954 0.9113775253295899 -0.38095241189002993
-195 10 -10 -0.06798882484436035 0.98190336227417 -0.06916469782590863
-140.00010681152344 -10 10 0 -0.9877234200636545 0.07139995321631432
-195 -10 0 -0.07520964555442333 -0.987928494811058 -1.6471365634615682E-16
-195 -10 10 -0.08247922857602437 -0.982288274500105 0.0824792285760243
-195 10 0 -0.07520964555442333 0.987928494811058 4.706104467033052E-17
-195 10 10 -0.08247922857602437 0.982288274500105 0.08247922857602437
-59.999900817871094 10 10 0 0.9877234200636545 0.07139995321631432
-140.00010681152344 -5 15 0 -0.09764599906546728 0.9822276490075247
-140.00010681152344 -6.913417339324951 14.61939811706543 0 -0.40741945803165436 0.8883595211165292
-140.00010681152344 -8.535533905029297 13.535533905029297 0 -0.7128703338759286 0.6613278431551797
-140.00010681152344 -9.61939811706543 11.913416862487793 0 -0.9162541202136448 0.3400759611810957
-195 -5 15 -0.04331936314702034 -0.04331936314702034 0.9885437488555908
-195 -6.277440547943115 14.745901107788086 -0.05665735403696696 -0.20043715586264926 0.9603662987550099
-195 -7.452571868896484 14.259145736694336 -0.029885849356651308 -0.5236159980297089 0.8353295087814332
-195 -6.913417339324951 14.61939811706543 -0.0632191836833954 -0.38095239996910096 0.9113775372505188
-195 -8.535533905029297 13.535533905029297 -0.05428754538297653 -0.6730119347572328 0.7146682262420655
-195 -9.259145736694336 12.452571868896484 -0.03471357996265093 -0.8260981639226277 0.5380670577287674
-195 -9.745901107788086 11.277441024780273 -0.008931639790534974 -0.9637017130851746 0.22202097028493883
-195 -9.61939811706543 11.913416862487793 -0.026186242699623108 -0.9197004675865174 0.3775049209594727
-59.999900817871094 6.913417339324951 14.61939811706543 8.605448168289009E-16 0.3400759611810957 0.9162541202136448
-195 6.913417339324951 14.61939811706543 -0.06321918368339478 0.38095241189002993 0.9113775253295899
-195 6.277440547943115 14.745901107788086 -0.03333333432674317 0.22319684773683549 0.9593133211135865
-59.999900817871094 5 15 5.019844764835255E-16 0.07139995321631432 0.9877234200636545
-195 5 15 -0.06798882484436006 0.06916469782590866 0.98190336227417
-59.999900817871094 8.535533905029297 13.535533905029297 8.605448168289009E-16 0.6613278431551797 0.7128703338759286
-195 8.535533905029297 13.535533905029297 -0.04165629595518053 0.721815299987793 0.6675277709960938
-195 7.452571868896484 14.259145736694336 -0.04523962115247968 0.5426371892293294 0.820142259200414
-59.999900817871094 9.61939811706543 11.913416862487793 3.7648835736264416E-16 0.899142898619175 0.37243716791272163
-195 9.61939811706543 11.913416862487793 -0.02618624269962281 0.9197004795074464 0.3775049149990082
-195 9.259145736694336 12.452571868896484 -0.01725460290908723 0.8392640471458436 0.521344393491745
-195 9.745901107788086 11.277441024780273 -0.008931639790534974 0.9637017011642457 0.22202096432447435
-195 0 15 -0.07520964555442333 0 0.987928494811058
-200 0 -10 -0.987928494811058 -3.529578350274789E-17 -0.07520964555442333
-199.61940002441406 0 -11.913416862487793 -0.9095693379640579 -3.529578350274789E-17 -0.3767559379339218
-199.7458953857422 -5 -11.277441024780273 -0.9593133211135865 -0.03333333432674411 -0.22319684773683549
-199.61940002441406 -5 -11.913416862487793 -0.9113775253295899 -0.0632191836833954 -0.38095241189002993
-198.53553771972656 0 -13.535533905029297 -0.6900350973010063 0 -0.6900350973010063
-198.53553771972656 -5 -13.535533905029297 -0.6675277709960938 -0.041656295955181125 -0.721815299987793
-199.25914001464844 -5 -12.452571868896484 -0.820142259200414 -0.04523962115248044 -0.5426371892293294
-196.91342163085938 0 -14.61939811706543 -0.3767559379339218 0 -0.9095693379640579
-197.45257568359375 -5 -14.259145736694336 -0.521344393491745 -0.017254602909088135 -0.8392640471458436
-196.91342163085938 -5 -14.61939811706543 -0.3775049149990082 -0.026186242699623098 -0.9197004795074464
-196.27743530273438 -5 -14.745901107788086 -0.22202096432447435 -0.008931639790534946 -0.9637017011642457
-200 5 -10 -0.9885437488555908 0.04331936314702031 -0.04331936314702041
-199.7458953857422 5 -11.277441024780273 -0.9603662987550099 0.05665735403696691 -0.20043715586264926
-199.25914001464844 5 -12.452571868896484 -0.8353295087814332 0.029885849356651308 -0.5236159980297089
-199.61940002441406 5 -11.913416862487793 -0.9113775372505188 0.06321918368339537 -0.38095239996910096
-198.53553771972656 5 -13.535533905029297 -0.7146682262420655 0.05428754538297653 -0.6730119347572328
-197.45257568359375 5 -14.259145736694336 -0.5380670577287674 0.03471357996265093 -0.8260981639226277
-196.27743530273438 5 -14.745901107788086 -0.22202097028493883 0.008931639790534946 -0.9637017130851746
-196.91342163085938 5 -14.61939811706543 -0.3775049209594727 0.026186242699623098 -0.9197004675865174
-200 -5 -10 -0.98190336227417 -0.06798882484436036 -0.06916469782590864
-196.27743530273438 -9.745901107788086 -10 -0.19945726295312244 -0.9603663086891174 -0.05763724818825722
-197.41481018066406 -9.182581901550293 -11.294095039367676 -0.46374719057764324 -0.8217074530465261 -0.23080997381891522
-196.25 -9.665063858032227 -11.294095039367676 -0.2333007069925467 -0.9167880415916443 -0.24198619772990543
-196.91342163085938 -9.61939811706543 -10 -0.3775049209594727 -0.9113775253295899 -0.06901841163635251
-197.45257568359375 -9.259145736694336 -10 -0.5213443815708161 -0.8353294849395753 -0.03450920581817622
-198.53553771972656 -8.535533905029297 -10 -0.6675277590751648 -0.7146682381629944 -0.0690184116363525
-198.41506958007812 -8.415063858032227 -11.294095039367676 -0.6652891337871552 -0.6596680680910746 -0.25489946703116095
-199.25914001464844 -7.452571868896484 -10 -0.8201422790686289 -0.5380670676628748 -0.05751534303029372
-199.66506958007812 -6.25 -11.294095039367676 -0.9111754223704338 -0.23189325630664825 -0.24472456984221935
-199.18258666992188 -7.414814472198486 -11.294095039367676 -0.8087132573127747 -0.47877619167168933 -0.25489946703116095
-199.61940002441406 -6.913417339324951 -10 -0.9113775372505188 -0.3775049149990082 -0.0690184116363525
-199.7458953857422 -6.277440547943115 -10 -0.9593133091926576 -0.22202096432447435 -0.03450920581817622
-196.12071228027344 -9.182581901550293 -12.5 -0.20318970297064098 -0.8217074700764246 -0.4822429461138589
-197.16506958007812 -8.75 -12.5 -0.4264551252126694 -0.7237558960914612 -0.49242796997229255
-198.06185913085938 -8.061861991882324 -12.5 -0.5992458164691925 -0.5887197653452555 -0.49242796997229255
-198.75 -7.165063381195068 -12.5 -0.7311989068984985 -0.41356340050697327 -0.49242796997229255
-199.18258666992188 -6.1207194328308105 -12.5 -0.8087132374445597 -0.21022338544329006 -0.5060813277959824
-195.91506958007812 -8.415063858032227 -13.535533905029297 -0.18768417711059251 -0.6596680680910746 -0.6964613695939381
-196.76776123046875 -8.061861991882324 -13.535533905029297 -0.3520519509911537 -0.5887197653452555 -0.6963982979456583
-197.5 -7.5 -13.535533905029297 -0.4924279600381851 -0.47754188875357306 -0.6963982979456583
-198.06185913085938 -6.767766952514648 -13.535533905029297 -0.5992458214362462 -0.33382031818230945 -0.6963982979456583
-198.41506958007812 -5.915063381195068 -13.535533905029297 -0.6652891337871552 -0.16734943414727846 -0.6962889432907104
-195.6470489501953 -7.414814472198486 -14.330126762390137 -0.13797577222188312 -0.47877619167168933 -0.8483014702796936
-196.25 -7.165063381195068 -14.330126762390137 -0.2536570206284523 -0.4135634104410807 -0.8529102106889088
-196.76776123046875 -6.767766952514648 -14.330126762390137 -0.35205195347468055 -0.33382032811641693 -0.8529102106889088
-197.16506958007812 -6.25 -14.330126762390137 -0.4264551301797231 -0.23132791866858798 -0.8529102106889088
-197.41481018066406 -5.647047519683838 -14.330126762390137 -0.46374719483511784 -0.10308026948145457 -0.8603477903774805
-195.33493041992188 -6.25 -14.829628944396973 -0.07886454959710439 -0.28141322980324424 -0.9428071876366932
-195.6470489501953 -6.1207194328308105 -14.829628944396973 -0.15694362223148348 -0.23732513785362244 -0.9438289046287537
-195.91506958007812 -5.915063381195068 -14.829628944396973 -0.2130201652646065 -0.1886184737086296 -0.9438289046287537
-196.12071228027344 -5.647047519683838 -14.829628944396973 -0.25457974076271056 -0.12705777436494828 -0.9438289046287537
-196.25 -5.334936618804932 -14.829628944396973 -0.26329418122768405 -0.056838305294513704 -0.9515035033226014
-199.7458953857422 6.277440547943115 -10 -0.9603663086891174 0.19945726295312244 -0.057637248188257356
-199.66506958007812 6.25 -11.294095039367676 -0.9167880415916443 0.2333007069925467 -0.24198619772990543
-199.61940002441406 6.913417339324951 -10 -0.9113775253295899 0.3775049209594727 -0.06901841163635265
-199.18258666992188 7.414814472198486 -11.294095039367676 -0.8217074530465261 0.46374719057764324 -0.23080997381891522
-199.25914001464844 7.452571868896484 -10 -0.8353294849395753 0.5213443815708161 -0.03450920581817644
-198.53553771972656 8.535533905029297 -10 -0.7146682381629944 0.6675277590751648 -0.06901841163635265
-198.41506958007812 8.415063858032227 -11.294095039367676 -0.6596680680910746 0.6652891337871552 -0.25489946703116095
-197.45257568359375 9.259145736694336 -10 -0.5380670676628748 0.8201422790686289 -0.05751534303029392
-196.25 9.665063858032227 -11.294095039367676 -0.23189325630664825 0.9111754223704338 -0.24472456984221935
-197.41481018066406 9.182581901550293 -11.294095039367676 -0.47877619167168933 0.8087132573127747 -0.25489946703116095
-196.91342163085938 9.61939811706543 -10 -0.3775049149990082 0.9113775372505188 -0.06901841163635257
-196.27743530273438 9.745901107788086 -10 -0.22202096432447435 0.9593133091926576 -0.03450920581817615
-199.18258666992188 6.1207194328308105 -12.5 -0.8217074700764246 0.20318970297064098 -0.4822429461138589
-198.75 7.165063381195068 -12.5 -0.7237558960914612 0.4264551252126694 -0.49242796997229255
-198.06185913085938 8.061861991882324 -12.5 -0.5887197653452555 0.5992458164691925 -0.49242796997229255
-197.16506958007812 8.75 -12.5 -0.41356340050697327 0.7311989068984985 -0.49242796997229255
-196.12071228027344 9.182581901550293 -12.5 -0.21022338544329006 0.8087132374445597 -0.5060813277959824
-198.41506958007812 5.915063381195068 -13.535533905029297 -0.6596680680910746 0.18768417711059251 -0.6964613695939381
-198.06185913085938 6.767766952514648 -13.535533905029297 -0.5887197653452555 0.3520519509911537 -0.6963982979456583
-197.5 7.5 -13.535533905029297 -0.47754188875357306 0.4924279600381851 -0.6963982979456583
-196.76776123046875 8.061861991882324 -13.535533905029297 -0.33382031818230945 0.5992458214362462 -0.6963982979456583
-195.91506958007812 8.415063858032227 -13.535533905029297 -0.16734943414727846 0.6652891337871552 -0.6962889432907104
-197.41481018066406 5.647047519683838 -14.330126762390137 -0.47877619167168933 0.13797577222188312 -0.8483014702796936
-197.16506958007812 6.25 -14.330126762390137 -0.4135634104410807 0.2536570206284523 -0.8529102106889088
-196.76776123046875 6.767766952514648 -14.330126762390137 -0.33382032811641693 0.35205195347468055 -0.8529102106889088
-196.25 7.165063381195068 -14.330126762390137 -0.23132791866858798 0.4264551301797231 -0.8529102106889088
-195.6470489501953 7.414814472198486 -14.330126762390137 -0.10308026948145457 0.46374719483511784 -0.8603477903774805
-196.25 5.334936618804932 -14.829628944396973 -0.28141322980324424 0.07886454959710439 -0.9428071876366932
-196.12071228027344 5.647047519683838 -14.829628944396973 -0.23732513785362244 0.15694362223148348 -0.9438289046287537
-195.91506958007812 5.915063381195068 -14.829628944396973 -0.1886184737086296 0.2130201652646065 -0.9438289046287537
-195.6470489501953 6.1207194328308105 -14.829628944396973 -0.12705777436494828 0.25457974076271056 -0.9438289046287537
-195.33493041992188 6.25 -14.829628944396973 -0.056838305294513704 0.26329418122768405 -0.9515035033226014
-200 -5 0 -0.9862039940697805 -0.08595388063362666 2.6892025525903154E-17
-199.61940002441406 -6.913417339324951 0 -0.9095693379640579 -0.3767559379339218 1.4118313401099156E-16
-199.7458953857422 -6.277440547943115 10 -0.9593133211135865 -0.22319684773683549 0.03333333432674408
-199.61940002441406 -6.913417339324951 10 -0.9113775253295899 -0.38095241189002993 0.06321918368339546
-198.53553771972656 -8.535533905029297 0 -0.6900350973010063 -0.6900350973010063 2.353052233516526E-16
-198.53553771972656 -8.535533905029297 10 -0.6675277709960938 -0.721815299987793 0.04165629595518128
-199.25914001464844 -7.452571868896484 10 -0.820142259200414 -0.5426371892293294 0.045239621152480626
-196.91342163085938 -9.61939811706543 0 -0.3767559379339218 -0.9095693379640579 -4.706104467033052E-17
-197.45257568359375 -9.259145736694336 10 -0.521344393491745 -0.8392640471458436 0.017254602909088364
-196.91342163085938 -9.61939811706543 10 -0.3775049149990082 -0.9197004795074464 0.026186242699623052
-196.27743530273438 -9.745901107788086 10 -0.22202096432447435 -0.9637017011642457 0.008931639790534579
-200 -5 10 -0.98190336227417 -0.06916469782590866 0.06798882484436035
-200 5 0 -0.9862039940697805 0.08595388063362666 -2.1513620420722523E-16
-199.61940002441406 6.913417339324951 0 -0.9095693379640579 0.3767559379339218 -2.823662680219831E-16
-198.53553771972656 8.535533905029297 0 -0.6900350973010063 0.6900350973010063 -1.8824417868132208E-16
-196.91342163085938 9.61939811706543 0 -0.3767559379339218 0.9095693379640579 -4.706104467033052E-17
-200 5 10 -0.9885437488555908 0.04331936314702034 0.04331936314702022
-199.7458953857422 6.277440547943115 10 -0.9603662987550099 0.20043715586264926 0.056657354036966714
-199.25914001464844 7.452571868896484 10 -0.8353295087814332 0.5236159980297089 0.029885849356651253
-199.61940002441406 6.913417339324951 10 -0.9113775372505188 0.38095239996910096 0.06321918368339528
-198.53553771972656 8.535533905029297 10 -0.7146682262420655 0.6730119347572328 0.05428754538297649
-197.45257568359375 9.259145736694336 10 -0.5380670577287674 0.8260981639226277 0.034713579962650884
-196.27743530273438 9.745901107788086 10 -0.22202097028493883 0.9637017130851746 0.008931639790534974
-196.91342163085938 9.61939811706543 10 -0.3775049209594727 0.9197004675865174 0.026186242699623087
-196.27743530273438 -5 14.745901107788086 -0.19945726295312244 -0.05763724818825722 0.9603663086891174
-197.41481018066406 -6.294095039367676 14.182581901550293 -0.46374719057764324 -0.23080997381891522 0.8217074530465261
-196.25 -6.294095039367676 14.665063858032227 -0.2333007069925467 -0.24198619772990543 0.9167880415916443
-196.91342163085938 -5 14.61939811706543 -0.3775049209594727 -0.06901841163635254 0.9113775253295899
-197.45257568359375 -5 14.259145736694336 -0.5213443815708161 -0.03450920581817627 0.8353294849395753
-198.53553771972656 -5 13.535533905029297 -0.6675277590751648 -0.06901841163635254 0.7146682381629944
-198.41506958007812 -6.294095039367676 13.415063858032227 -0.6652891337871552 -0.25489946703116095 0.6596680680910746
-199.25914001464844 -5 12.452571868896484 -0.8201422790686289 -0.05751534303029378 0.5380670676628748
-199.66506958007812 -6.294095039367676 11.25 -0.9111754223704338 -0.24472456984221935 0.23189325630664825
-199.18258666992188 -6.294095039367676 12.414814949035645 -0.8087132573127747 -0.25489946703116095 0.47877619167168933
-199.61940002441406 -5 11.913416862487793 -0.9113775372505188 -0.06901841163635254 0.3775049149990082
-199.7458953857422 -5 11.277441024780273 -0.9593133091926576 -0.03450920581817627 0.22202096432447435
-196.12071228027344 -7.5 14.182581901550293 -0.20318970297064098 -0.4822429461138589 0.8217074700764246
-197.16506958007812 -7.5 13.75 -0.4264551252126694 -0.49242796997229255 0.7237558960914612
-198.06185913085938 -7.5 13.061861991882324 -0.5992458164691925 -0.49242796997229255 0.5887197653452555
-198.75 -7.5 12.165063858032227 -0.7311989068984985 -0.49242796997229255 0.41356340050697327
-199.18258666992188 -7.5 11.120718955993652 -0.8087132374445597 -0.5060813277959824 0.21022338544329006
-195.91506958007812 -8.535533905029297 13.415063858032227 -0.18768417711059251 -0.6964613695939381 0.6596680680910746
-196.76776123046875 -8.535533905029297 13.061861991882324 -0.3520519509911537 -0.6963982979456583 0.5887197653452555
-197.5 -8.535533905029297 12.5 -0.4924279600381851 -0.6963982979456583 0.47754188875357306
-198.06185913085938 -8.535533905029297 11.767766952514648 -0.5992458214362462 -0.6963982979456583 0.33382031818230945
-198.41506958007812 -8.535533905029297 10.915063858032227 -0.6652891337871552 -0.6962889432907104 0.16734943414727846
-195.6470489501953 -9.330126762390137 12.414814949035645 -0.13797577222188312 -0.8483014702796936 0.47877619167168933
-196.25 -9.330126762390137 12.165063858032227 -0.2536570206284523 -0.8529102106889088 0.4135634104410807
-196.76776123046875 -9.330126762390137 11.767766952514648 -0.35205195347468055 -0.8529102106889088 0.33382032811641693
-197.16506958007812 -9.330126762390137 11.25 -0.4264551301797231 -0.8529102106889088 0.23132791866858798
-197.41481018066406 -9.330126762390137 10.647047996520996 -0.46374719483511784 -0.8603477903774805 0.10308026948145457
-195.33493041992188 -9.829628944396973 11.25 -0.07886454959710439 -0.9428071876366932 0.28141322980324424
-195.6470489501953 -9.829628944396973 11.120718955993652 -0.15694362223148348 -0.9438289046287537 0.23732513785362244
-195.91506958007812 -9.829628944396973 10.915063858032227 -0.2130201652646065 -0.9438289046287537 0.1886184737086296
-196.12071228027344 -9.829628944396973 10.647047996520996 -0.25457974076271056 -0.9438289046287537 0.12705777436494828
-196.25 -9.829628944396973 10.334936141967773 -0.26329418122768405 -0.9515035033226014 0.056838305294513704
-199.7458953857422 5 11.277441024780273 -0.9603663086891174 0.05763724818825722 0.19945726295312244
-199.18258666992188 6.294095039367676 12.414814949035645 -0.8217074530465261 0.23080997381891522 0.46374719057764324
-199.66506958007812 6.294095039367676 11.25 -0.9167880415916443 0.24198619772990543 0.2333007069925467
-199.61940002441406 5 11.913416862487793 -0.9113775253295899 0.06901841163635254 0.3775049209594727
-199.25914001464844 5 12.452571868896484 -0.8353294849395753 0.03450920581817627 0.5213443815708161
-198.53553771972656 5 13.535533905029297 -0.7146682381629944 0.06901841163635254 0.6675277590751648
-198.41506958007812 6.294095039367676 13.415063858032227 -0.6596680680910746 0.25489946703116095 0.6652891337871552
-197.45257568359375 5 14.259145736694336 -0.5380670676628748 0.05751534303029378 0.8201422790686289
-196.25 6.294095039367676 14.665063858032227 -0.23189325630664825 0.24472456984221935 0.9111754223704338
-197.41481018066406 6.294095039367676 14.182581901550293 -0.47877619167168933 0.25489946703116095 0.8087132573127747
-196.91342163085938 5 14.61939811706543 -0.3775049149990082 0.06901841163635254 0.9113775372505188
-196.27743530273438 5 14.745901107788086 -0.22202096432447435 0.03450920581817627 0.9593133091926576
-199.18258666992188 7.5 11.120718955993652 -0.8217074700764246 0.4822429461138589 0.20318970297064098
-198.75 7.5 12.165063858032227 -0.7237558960914612 0.49242796997229255 0.4264551252126694
-198.06185913085938 7.5 13.061861991882324 -0.5887197653452555 0.49242796997229255 0.5992458164691925
-197.16506958007812 7.5 13.75 -0.41356340050697327 0.49242796997229255 0.7311989068984985
-196.12071228027344 7.5 14.182581901550293 -0.21022338544329006 0.5060813277959824 0.8087132374445597
-198.41506958007812 8.535533905029297 10.915063858032227 -0.6596680680910746 0.6964613695939381 0.18768417711059251
-198.06185913085938 8.535533905029297 11.767766952514648 -0.5887197653452555 0.6963982979456583 0.3520519509911537
-197.5 8.535533905029297 12.5 -0.47754188875357306 0.6963982979456583 0.4924279600381851
-196.76776123046875 8.535533905029297 13.061861991882324 -0.33382031818230945 0.6963982979456583 0.5992458214362462
-195.91506958007812 8.535533905029297 13.415063858032227 -0.16734943414727846 0.6962889432907104 0.6652891337871552
-197.41481018066406 9.330126762390137 10.647047996520996 -0.47877619167168933 0.8483014702796936 0.13797577222188312
-197.16506958007812 9.330126762390137 11.25 -0.4135634104410807 0.8529102106889088 0.2536570206284523
-196.76776123046875 9.330126762390137 11.767766952514648 -0.33382032811641693 0.8529102106889088 0.35205195347468055
-196.25 9.330126762390137 12.165063858032227 -0.23132791866858798 0.8529102106889088 0.4264551301797231
-195.6470489501953 9.330126762390137 12.414814949035645 -0.10308026948145457 0.8603477903774805 0.46374719483511784
-196.25 9.829628944396973 10.334936141967773 -0.28141322980324424 0.9428071876366932 0.07886454959710439
-196.12071228027344 9.829628944396973 10.647047996520996 -0.23732513785362244 0.9438289046287537 0.15694362223148348
-195.91506958007812 9.829628944396973 10.915063858032227 -0.1886184737086296 0.9438289046287537 0.2130201652646065
-195.6470489501953 9.829628944396973 11.120718955993652 -0.12705777436494828 0.9438289046287537 0.25457974076271056
-195.33493041992188 9.829628944396973 11.25 -0.056838305294513704 0.9515035033226014 0.26329418122768405
-196.91342163085938 0 14.61939811706543 -0.3767559379339218 0 0.9095693379640579
-198.53553771972656 0 13.535533905029297 -0.6900350973010063 0 0.6900350973010063
-199.61940002441406 0 11.913416862487793 -0.9095693379640579 0 0.3767559379339218
-200 0 10 -0.987928494811058 0 0.07520964555442333
3 0 1 2
3 2 3 0
3 0 3 4
3 5 4 6
3 7 6 8
3 9 8 10
3 11 10 12
3 13 12 14
3 15 14 16
3 17 16 18
3 19 18 20
3 21 20 22
3 23 22 24
3 24 25 23
3 22 23 21
3 20 21 19
3 18 19 17
3 16 17 15
3 14 15 13
3 12 13 11
3 10 11 9
3 8 9 7
3 6 7 5
3 4 5 0
3 22 16 14
3 22 20 18
3 18 16 22
3 26 27 28
3 26 29 30
3 24 8 6
3 24 12 10
3 12 24 22
3 30 27 26
3 31 32 33
3 34 35 36
3 6 4 24
3 14 12 22
3 28 37 26
3 38 39 40
3 38 41 42
3 33 43 31
3 31 44 45
3 31 46 47
3 46 31 34
3 48 49 50
3 51 52 53
3 10 8 24
3 3 54 38
3 40 29 38
3 38 54 41
3 45 32 31
3 36 46 34
3 50 55 48
3 51 56 57
3 51 58 59
3 51 2 52
3 38 24 3
3 42 39 38
3 47 44 31
3 60 2 51
3 57 49 51
3 53 58 51
3 60 54 3
3 26 38 29
3 51 31 60
3 59 56 51
3 4 3 24
3 48 51 49
3 43 60 31
3 3 2 60
3 61 62 63
3 61 64 65
3 66 67 68
3 65 62 61
3 13 19 21
3 13 15 17
3 69 70 71
3 70 69 66
3 72 73 74
3 75 76 77
3 75 61 78
3 61 75 64
3 17 19 13
3 69 79 80
3 69 81 82
3 68 70 66
3 74 83 72
3 84 85 86
3 77 87 75
3 63 88 61
3 21 23 13
3 25 9 11
3 25 5 7
3 80 89 69
3 71 81 69
3 86 73 84
3 84 90 91
3 84 92 93
3 78 76 75
3 94 0 25
3 11 13 25
3 25 0 5
3 82 79 69
3 1 95 84
3 91 85 84
3 84 95 92
3 25 75 94
3 7 9 25
3 84 69 1
3 93 90 84
3 23 25 13
3 1 0 94
3 72 84 73
3 94 95 1
3 87 94 75
3 89 1 69
3 2 1 89
3 52 89 80
3 53 80 79
3 58 79 82
3 59 82 81
3 56 81 71
3 57 71 70
3 49 70 68
3 50 68 67
3 55 67 66
3 48 66 69
3 69 51 48
3 66 48 55
3 67 55 50
3 68 50 49
3 70 49 57
3 71 57 56
3 81 56 59
3 82 59 58
3 79 58 53
3 80 53 52
3 89 52 2
3 38 75 25
3 25 24 38
3 69 84 31
3 31 51 69
3 54 94 87
3 41 87 77
3 42 77 76
3 39 76 78
3 40 78 61
3 29 61 88
3 30 88 63
3 27 63 62
3 28 62 65
3 37 65 64
3 26 64 75
3 75 38 26
3 64 26 37
3 65 37 28
3 62 28 27
3 63 27 30
3 88 30 29
3 61 29 40
3 78 40 39
3 76 39 42
3 77 42 41
3 87 41 54
3 95 60 43
3 92 43 33
3 93 33 32
3 90 32 45
3 91 45 44
3 85 44 47
3 86 47 46
3 73 46 36
3 74 36 35
3 83 35 34
3 72 34 31
3 31 84 72
3 34 72 83
3 35 83 74
3 36 74 73
3 46 73 86
3 47 86 85
3 44 85 91
3 45 91 90
3 32 90 93
3 33 93 92
3 43 92 95
3 60 95 94
3 94 54 60
3 96 97 98
3 96 99 100
3 100 101 96
3 102 97 96
3 96 101 102
3 98 99 96
3 103 104 102
3 105 106 103
3 103 106 107
3 103 108 109
3 109 104 103
3 107 108 103
3 105 110 106
3 102 105 103
3 110 111 112
3 112 111 113
3 112 114 115
3 115 116 112
3 113 114 112
3 110 105 117
3 117 111 110
3 117 118 119
3 119 118 120
3 119 121 122
3 122 123 119
3 120 121 119
3 117 105 118
3 119 123 117
3 112 116 110
3 101 105 102
3 105 124 125
3 124 126 125
3 124 105 127
3 105 101 127
3 127 128 124
3 125 118 105
3 129 130 131
3 131 127 129
3 131 128 127
3 132 133 134
3 134 129 132
3 135 136 137
3 137 132 135
3 137 133 132
3 138 139 140
3 140 135 138
3 101 100 129
3 100 99 132
3 99 98 135
3 98 97 138
3 138 135 98
3 135 132 99
3 132 129 100
3 129 127 101
3 140 136 135
3 134 130 129
3 125 141 120
3 141 142 121
3 142 143 122
3 143 144 123
3 125 126 145
3 145 141 125
3 142 141 146
3 141 147 146
3 142 148 149
3 149 143 142
3 144 143 150
3 143 151 150
3 150 152 144
3 149 151 143
3 146 148 142
3 145 147 141
3 123 122 143
3 122 121 142
3 121 120 141
3 120 118 125
3 102 104 153
3 153 154 102
3 154 139 138
3 138 102 154
3 138 97 102
3 153 155 154
3 117 123 144
3 144 156 117
3 156 157 158
3 158 117 156
3 158 111 117
3 144 152 156
3 159 160 107
3 160 161 108
3 161 162 109
3 162 153 104
3 159 163 164
3 164 160 159
3 161 160 165
3 160 166 165
3 161 167 168
3 168 162 161
3 153 162 169
3 162 170 169
3 169 155 153
3 168 170 162
3 165 167 161
3 164 166 160
3 104 109 162
3 109 108 161
3 108 107 160
3 107 106 159
3 171 172 173
3 173 174 171
3 173 175 174
3 176 177 178
3 178 171 176
3 179 180 181
3 181 176 179
3 181 177 176
3 158 157 182
3 182 179 158
3 116 115 171
3 115 114 176
3 114 113 179
3 179 113 111
3 111 158 179
3 179 176 114
3 176 171 115
3 171 174 116
3 182 180 179
3 178 172 171
3 183 110 174
3 110 116 174
3 110 183 159
3 183 163 159
3 159 106 110
3 174 175 183
3 184 185 186
3 185 187 186
3 188 189 190
3 190 185 188
3 188 191 192
3 191 193 192
3 124 128 194
3 194 191 124
3 184 195 196
3 196 185 184
3 188 185 197
3 185 198 197
3 188 199 200
3 200 191 188
3 124 191 201
3 191 202 201
3 201 126 124
3 200 202 191
3 197 199 188
3 196 198 185
3 194 193 191
3 192 189 188
3 190 187 185
3 186 203 184
3 140 139 204
3 205 206 207
3 206 204 207
3 205 208 209
3 210 209 211
3 212 213 214
3 213 211 214
3 212 215 203
3 216 137 136
3 136 206 216
3 216 206 205
3 217 205 210
3 218 210 213
3 219 213 212
3 220 212 187
3 212 186 187
3 133 137 216
3 221 216 217
3 222 217 218
3 223 218 219
3 224 219 220
3 225 220 190
3 134 133 221
3 226 221 222
3 227 222 223
3 228 223 224
3 229 224 225
3 230 225 189
3 231 131 130
3 130 226 231
3 231 226 227
3 232 227 228
3 233 228 229
3 234 229 230
3 235 230 193
3 230 192 193
3 128 235 194
3 128 234 235
3 128 233 234
3 128 232 233
3 128 231 232
3 128 131 231
3 193 194 235
3 230 235 234
3 229 234 233
3 228 233 232
3 227 232 231
3 130 134 226
3 189 192 230
3 225 230 229
3 224 229 228
3 223 228 227
3 222 227 226
3 221 226 134
3 190 189 225
3 220 225 224
3 219 224 223
3 218 223 222
3 217 222 221
3 216 221 133
3 187 190 220
3 212 220 219
3 213 219 218
3 210 218 217
3 205 217 216
3 136 140 206
3 203 186 212
3 214 215 212
3 211 213 210
3 209 210 205
3 207 208 205
3 204 206 140
3 196 195 236
3 237 236 238
3 238 239 237
3 239 240 241
3 242 241 243
3 244 245 246
3 245 243 246
3 244 247 152
3 248 197 198
3 198 237 248
3 248 237 239
3 249 239 242
3 250 242 245
3 251 245 244
3 252 244 151
3 244 150 151
3 199 197 248
3 253 248 249
3 254 249 250
3 255 250 251
3 256 251 252
3 257 252 149
3 200 199 253
3 258 253 254
3 259 254 255
3 260 255 256
3 261 256 257
3 262 257 148
3 263 201 202
3 202 258 263
3 263 258 259
3 264 259 260
3 265 260 261
3 266 261 262
3 267 262 147
3 262 146 147
3 126 267 145
3 126 266 267
3 126 265 266
3 126 264 265
3 126 263 264
3 126 201 263
3 147 145 267
3 262 267 266
3 261 266 265
3 260 265 264
3 259 264 263
3 202 200 258
3 148 146 262
3 257 262 261
3 256 261 260
3 255 260 259
3 254 259 258
3 253 258 200
3 149 148 257
3 252 257 256
3 251 256 255
3 250 255 254
3 249 254 253
3 248 253 199
3 151 149 252
3 244 252 251
3 245 251 250
3 242 250 249
3 239 249 248
3 198 196 237
3 152 150 244
3 246 247 244
3 243 245 242
3 241 242 239
3 238 240 239
3 236 237 196
3 268 269 270
3 269 271 270
3 272 273 274
3 274 269 272
3 272 275 276
3 275 277 276
3 154 155 278
3 278 275 154
3 268 203 215
3 215 269 268
3 272 269 211
3 269 214 211
3 272 209 208
3 208 275 272
3 154 275 204
3 275 207 204
3 204 139 154
3 208 207 275
3 211 209 272
3 215 214 269
3 278 277 275
3 276 273 272
3 274 271 269
3 270 279 268
3 280 281 236
3 281 238 236
3 282 241 240
3 240 281 282
3 282 283 243
3 283 246 243
3 156 152 247
3 247 283 156
3 280 284 285
3 285 281 280
3 282 281 286
3 281 287 286
3 282 288 289
3 289 283 282
3 156 283 290
3 283 291 290
3 290 157 156
3 289 291 283
3 286 288 282
3 285 287 281
3 247 246 283
3 243 241 282
3 240 238 281
3 236 195 280
3 164 163 292
3 293 294 295
3 294 292 295
3 293 296 297
3 298 297 299
3 300 301 302
3 301 299 302
3 300 303 279
3 304 165 166
3 166 294 304
3 304 294 293
3 305 293 298
3 306 298 301
3 307 301 300
3 308 300 271
3 300 270 271
3 167 165 304
3 309 304 305
3 310 305 306
3 311 306 307
3 312 307 308
3 313 308 274
3 168 167 309
3 314 309 310
3 315 310 311
3 316 311 312
3 317 312 313
3 318 313 273
3 319 169 170
3 170 314 319
3 319 314 315
3 320 315 316
3 321 316 317
3 322 317 318
3 323 318 277
3 318 276 277
3 155 323 278
3 155 322 323
3 155 321 322
3 155 320 321
3 155 319 320
3 155 169 319
3 277 278 323
3 318 323 322
3 317 322 321
3 316 321 320
3 315 320 319
3 170 168 314
3 273 276 318
3 313 318 317
3 312 317 316
3 311 316 315
3 310 315 314
3 309 314 168
3 274 273 313
3 308 313 312
3 307 312 311
3 306 311 310
3 305 310 309
3 304 309 167
3 271 274 308
3 300 308 307
3 301 307 306
3 298 306 305
3 293 305 304
3 166 164 294
3 279 270 300
3 302 303 300
3 299 301 298
3 297 298 293
3 295 296 293
3 292 294 164
3 285 284 324
3 325 326 327
3 326 324 327
3 325 328 329
3 330 329 331
3 332 333 334
3 333 331 334
3 332 335 175
3 336 286 287
3 287 326 336
3 336 326 325
3 337 325 330
3 338 330 333
3 339 333 332
3 340 332 172
3 332 173 172
3 288 286 336
3 341 336 337
3 342 337 338
3 343 338 339
3 344 339 340
3 345 340 178
3 289 288 341
3 346 341 342
3 347 342 343
3 348 343 344
3 349 344 345
3 350 345 177
3 351 290 291
3 291 346 351
3 351 346 347
3 352 347 348
3 353 348 349
3 354 349 350
3 355 350 180
3 350 181 180
3 157 355 182
3 157 354 355
3 157 353 354
3 157 352 353
3 157 351 352
3 157 290 351
3 180 182 355
3 350 355 354
3 349 354 353
3 348 353 352
3 347 352 351
3 291 289 346
3 177 181 350
3 345 350 349
3 344 349 348
3 343 348 347
3 342 347 346
3 341 346 289
3 178 177 345
3 340 345 344
3 339 344 343
3 338 343 342
3 337 342 341
3 336 341 288
3 172 178 340
3 332 340 339
3 333 339 338
3 330 338 337
3 325 337 336
3 287 285 326
3 175 173 332
3 334 335 332
3 331 333 330
3 329 330 325
3 327 328 325
3 324 326 285
3 183 356 292
3 356 295 292
3 357 297 296
3 296 356 357
3 357 358 299
3 358 302 299
3 359 279 303
3 303 358 359
3 183 175 335
3 335 356 183
3 357 356 331
3 356 334 331
3 357 329 328
3 328 358 357
3 359 358 324
3 358 327 324
3 324 284 359
3 328 327 358
3 331 329 357
3 335 334 356
3 303 302 358
3 299 297 357
3 296 295 356
3 292 163 183
3 359 284 280
3 280 184 359
3 184 203 268
3 268 359 184
3 268 279 359
3 280 195 184
