<?xml version="1.0" encoding="utf-8" standalone="no"?>
<!DOCTYPE svg PUBLIC "-//W3C//DTD SVG 1.1//EN"
  "http://www.w3.org/Graphics/SVG/1.1/DTD/svg11.dtd">
<svg xmlns:xlink="http://www.w3.org/1999/xlink" width="1152pt" height="720pt" viewBox="0 0 1152 720" xmlns="http://www.w3.org/2000/svg" version="1.1">
 <metadata>
  <rdf:RDF xmlns:dc="http://purl.org/dc/elements/1.1/" xmlns:cc="http://creativecommons.org/ns#" xmlns:rdf="http://www.w3.org/1999/02/22-rdf-syntax-ns#">
   <cc:Work>
    <dc:type rdf:resource="http://purl.org/dc/dcmitype/StillImage"/>
    <dc:date>2023-05-10T23:05:08.712666</dc:date>
    <dc:format>image/svg+xml</dc:format>
    <dc:creator>
     <cc:Agent>
      <dc:title>Matplotlib v3.5.2, https://matplotlib.org/</dc:title>
     </cc:Agent>
    </dc:creator>
   </cc:Work>
  </rdf:RDF>
 </metadata>
 <defs>
  <style type="text/css">*{stroke-linejoin: round; stroke-linecap: butt}</style>
 </defs>
 <g id="figure_1">
  <g id="patch_1">
   <path d="M 0 720 
L 1152 720 
L 1152 0 
L 0 0 
z
" style="fill: #ffffff"/>
  </g>
  <g id="axes_1">
   <g id="patch_2">
    <path d="M 116.312727 351.320127 
L 505.69 351.320127 
L 505.69 86.418754 
L 116.312727 86.418754 
z
" style="fill: #ffffff"/>
   </g>
   <g id="matplotlib.axis_1">
    <g id="xtick_1">
     <g id="line2d_1">
      <defs>
       <path id="m47a1475474" d="M 0 0 
L 0 3.5 
" style="stroke: #000000; stroke-width: 0.8"/>
      </defs>
      <g>
       <use xlink:href="#m47a1475474" x="134.011694" y="351.320127" style="stroke: #000000; stroke-width: 0.8"/>
      </g>
     </g>
    </g>
    <g id="xtick_2">
     <g id="line2d_2">
      <g>
       <use xlink:href="#m47a1475474" x="342.361069" y="351.320127" style="stroke: #000000; stroke-width: 0.8"/>
      </g>
     </g>
    </g>
    <g id="xtick_3">
     <g id="line2d_3">
      <defs>
       <path id="meae676be6f" d="M 0 0 
L 0 2 
" style="stroke: #000000; stroke-width: 0.6"/>
      </defs>
      <g>
       <use xlink:href="#meae676be6f" x="124.47815" y="351.320127" style="stroke: #000000; stroke-width: 0.6"/>
      </g>
     </g>
    </g>
    <g id="xtick_4">
     <g id="line2d_4">
      <g>
       <use xlink:href="#meae676be6f" x="196.731106" y="351.320127" style="stroke: #000000; stroke-width: 0.6"/>
      </g>
     </g>
    </g>
    <g id="xtick_5">
     <g id="line2d_5">
      <g>
       <use xlink:href="#meae676be6f" x="233.41961" y="351.320127" style="stroke: #000000; stroke-width: 0.6"/>
      </g>
     </g>
    </g>
    <g id="xtick_6">
     <g id="line2d_6">
      <g>
       <use xlink:href="#meae676be6f" x="259.450517" y="351.320127" style="stroke: #000000; stroke-width: 0.6"/>
      </g>
     </g>
    </g>
    <g id="xtick_7">
     <g id="line2d_7">
      <g>
       <use xlink:href="#meae676be6f" x="279.641658" y="351.320127" style="stroke: #000000; stroke-width: 0.6"/>
      </g>
     </g>
    </g>
    <g id="xtick_8">
     <g id="line2d_8">
      <g>
       <use xlink:href="#meae676be6f" x="296.139021" y="351.320127" style="stroke: #000000; stroke-width: 0.6"/>
      </g>
     </g>
    </g>
    <g id="xtick_9">
     <g id="line2d_9">
      <g>
       <use xlink:href="#meae676be6f" x="310.087343" y="351.320127" style="stroke: #000000; stroke-width: 0.6"/>
      </g>
     </g>
    </g>
    <g id="xtick_10">
     <g id="line2d_10">
      <g>
       <use xlink:href="#meae676be6f" x="322.169929" y="351.320127" style="stroke: #000000; stroke-width: 0.6"/>
      </g>
     </g>
    </g>
    <g id="xtick_11">
     <g id="line2d_11">
      <g>
       <use xlink:href="#meae676be6f" x="332.827525" y="351.320127" style="stroke: #000000; stroke-width: 0.6"/>
      </g>
     </g>
    </g>
    <g id="xtick_12">
     <g id="line2d_12">
      <g>
       <use xlink:href="#meae676be6f" x="405.080481" y="351.320127" style="stroke: #000000; stroke-width: 0.6"/>
      </g>
     </g>
    </g>
    <g id="xtick_13">
     <g id="line2d_13">
      <g>
       <use xlink:href="#meae676be6f" x="441.768985" y="351.320127" style="stroke: #000000; stroke-width: 0.6"/>
      </g>
     </g>
    </g>
    <g id="xtick_14">
     <g id="line2d_14">
      <g>
       <use xlink:href="#meae676be6f" x="467.799892" y="351.320127" style="stroke: #000000; stroke-width: 0.6"/>
      </g>
     </g>
    </g>
    <g id="xtick_15">
     <g id="line2d_15">
      <g>
       <use xlink:href="#meae676be6f" x="487.991033" y="351.320127" style="stroke: #000000; stroke-width: 0.6"/>
      </g>
     </g>
    </g>
    <g id="xtick_16">
     <g id="line2d_16">
      <g>
       <use xlink:href="#meae676be6f" x="504.488396" y="351.320127" style="stroke: #000000; stroke-width: 0.6"/>
      </g>
     </g>
    </g>
   </g>
   <g id="matplotlib.axis_2">
    <g id="ytick_1">
     <g id="line2d_17">
      <path d="M 116.312727 344.61611 
L 505.69 344.61611 
" clip-path="url(#p29312a0f2b)" style="fill: none; stroke: #d3d3d3; stroke-width: 0.8; stroke-linecap: square"/>
     </g>
     <g id="line2d_18">
      <defs>
       <path id="m9eba58e67e" d="M 0 0 
L -3.5 0 
" style="stroke: #000000; stroke-width: 0.8"/>
      </defs>
      <g>
       <use xlink:href="#m9eba58e67e" x="116.312727" y="344.61611" style="stroke: #000000; stroke-width: 0.8"/>
      </g>
     </g>
     <g id="text_1">
      <!-- 47.2 -->
      <g transform="translate(74.312727 351.55986)scale(0.2 -0.2)">
       <defs>
        <path id="TimesNewRomanPSMT-34" d="M 2978 1563 
L 2978 1119 
L 2409 1119 
L 2409 0 
L 1894 0 
L 1894 1119 
L 100 1119 
L 100 1519 
L 2066 4325 
L 2409 4325 
L 2409 1563 
L 2978 1563 
z
M 1894 1563 
L 1894 3666 
L 406 1563 
L 1894 1563 
z
" transform="scale(0.015625)"/>
        <path id="TimesNewRomanPSMT-37" d="M 644 4238 
L 2916 4238 
L 2916 4119 
L 1503 -88 
L 1153 -88 
L 2419 3728 
L 1253 3728 
Q 900 3728 750 3644 
Q 488 3500 328 3200 
L 238 3234 
L 644 4238 
z
" transform="scale(0.015625)"/>
        <path id="TimesNewRomanPSMT-2e" d="M 800 606 
Q 947 606 1047 504 
Q 1147 403 1147 259 
Q 1147 116 1045 14 
Q 944 -88 800 -88 
Q 656 -88 554 14 
Q 453 116 453 259 
Q 453 406 554 506 
Q 656 606 800 606 
z
" transform="scale(0.015625)"/>
        <path id="TimesNewRomanPSMT-32" d="M 2934 816 
L 2638 0 
L 138 0 
L 138 116 
Q 1241 1122 1691 1759 
Q 2141 2397 2141 2925 
Q 2141 3328 1894 3587 
Q 1647 3847 1303 3847 
Q 991 3847 742 3664 
Q 494 3481 375 3128 
L 259 3128 
Q 338 3706 661 4015 
Q 984 4325 1469 4325 
Q 1984 4325 2329 3994 
Q 2675 3663 2675 3213 
Q 2675 2891 2525 2569 
Q 2294 2063 1775 1497 
Q 997 647 803 472 
L 1909 472 
Q 2247 472 2383 497 
Q 2519 522 2628 598 
Q 2738 675 2819 816 
L 2934 816 
z
" transform="scale(0.015625)"/>
       </defs>
       <use xlink:href="#TimesNewRomanPSMT-34"/>
       <use xlink:href="#TimesNewRomanPSMT-37" x="50"/>
       <use xlink:href="#TimesNewRomanPSMT-2e" x="100"/>
       <use xlink:href="#TimesNewRomanPSMT-32" x="125"/>
      </g>
     </g>
    </g>
    <g id="ytick_2">
     <g id="line2d_19">
      <path d="M 116.312727 293.286585 
L 505.69 293.286585 
" clip-path="url(#p29312a0f2b)" style="fill: none; stroke: #d3d3d3; stroke-width: 0.8; stroke-linecap: square"/>
     </g>
     <g id="line2d_20">
      <g>
       <use xlink:href="#m9eba58e67e" x="116.312727" y="293.286585" style="stroke: #000000; stroke-width: 0.8"/>
      </g>
     </g>
     <g id="text_2">
      <!-- 47.4 -->
      <g transform="translate(74.312727 300.230335)scale(0.2 -0.2)">
       <use xlink:href="#TimesNewRomanPSMT-34"/>
       <use xlink:href="#TimesNewRomanPSMT-37" x="50"/>
       <use xlink:href="#TimesNewRomanPSMT-2e" x="100"/>
       <use xlink:href="#TimesNewRomanPSMT-34" x="125"/>
      </g>
     </g>
    </g>
    <g id="ytick_3">
     <g id="line2d_21">
      <path d="M 116.312727 241.957059 
L 505.69 241.957059 
" clip-path="url(#p29312a0f2b)" style="fill: none; stroke: #d3d3d3; stroke-width: 0.8; stroke-linecap: square"/>
     </g>
     <g id="line2d_22">
      <g>
       <use xlink:href="#m9eba58e67e" x="116.312727" y="241.957059" style="stroke: #000000; stroke-width: 0.8"/>
      </g>
     </g>
     <g id="text_3">
      <!-- 47.6 -->
      <g transform="translate(74.312727 248.900809)scale(0.2 -0.2)">
       <defs>
        <path id="TimesNewRomanPSMT-36" d="M 2869 4325 
L 2869 4209 
Q 2456 4169 2195 4045 
Q 1934 3922 1679 3669 
Q 1425 3416 1258 3105 
Q 1091 2794 978 2366 
Q 1428 2675 1881 2675 
Q 2316 2675 2634 2325 
Q 2953 1975 2953 1425 
Q 2953 894 2631 456 
Q 2244 -75 1606 -75 
Q 1172 -75 869 213 
Q 275 772 275 1663 
Q 275 2231 503 2743 
Q 731 3256 1154 3653 
Q 1578 4050 1965 4187 
Q 2353 4325 2688 4325 
L 2869 4325 
z
M 925 2138 
Q 869 1716 869 1456 
Q 869 1156 980 804 
Q 1091 453 1309 247 
Q 1469 100 1697 100 
Q 1969 100 2183 356 
Q 2397 613 2397 1088 
Q 2397 1622 2184 2012 
Q 1972 2403 1581 2403 
Q 1463 2403 1327 2353 
Q 1191 2303 925 2138 
z
" transform="scale(0.015625)"/>
       </defs>
       <use xlink:href="#TimesNewRomanPSMT-34"/>
       <use xlink:href="#TimesNewRomanPSMT-37" x="50"/>
       <use xlink:href="#TimesNewRomanPSMT-2e" x="100"/>
       <use xlink:href="#TimesNewRomanPSMT-36" x="125"/>
      </g>
     </g>
    </g>
    <g id="ytick_4">
     <g id="line2d_23">
      <path d="M 116.312727 190.627534 
L 505.69 190.627534 
" clip-path="url(#p29312a0f2b)" style="fill: none; stroke: #d3d3d3; stroke-width: 0.8; stroke-linecap: square"/>
     </g>
     <g id="line2d_24">
      <g>
       <use xlink:href="#m9eba58e67e" x="116.312727" y="190.627534" style="stroke: #000000; stroke-width: 0.8"/>
      </g>
     </g>
     <g id="text_4">
      <!-- 47.8 -->
      <g transform="translate(74.312727 197.571284)scale(0.2 -0.2)">
       <defs>
        <path id="TimesNewRomanPSMT-38" d="M 1228 2134 
Q 725 2547 579 2797 
Q 434 3047 434 3316 
Q 434 3728 753 4026 
Q 1072 4325 1600 4325 
Q 2113 4325 2425 4047 
Q 2738 3769 2738 3413 
Q 2738 3175 2569 2928 
Q 2400 2681 1866 2347 
Q 2416 1922 2594 1678 
Q 2831 1359 2831 1006 
Q 2831 559 2490 242 
Q 2150 -75 1597 -75 
Q 994 -75 656 303 
Q 388 606 388 966 
Q 388 1247 577 1523 
Q 766 1800 1228 2134 
z
M 1719 2469 
Q 2094 2806 2194 3001 
Q 2294 3197 2294 3444 
Q 2294 3772 2109 3958 
Q 1925 4144 1606 4144 
Q 1288 4144 1088 3959 
Q 888 3775 888 3528 
Q 888 3366 970 3203 
Q 1053 3041 1206 2894 
L 1719 2469 
z
M 1375 2016 
Q 1116 1797 991 1539 
Q 866 1281 866 981 
Q 866 578 1086 336 
Q 1306 94 1647 94 
Q 1984 94 2187 284 
Q 2391 475 2391 747 
Q 2391 972 2272 1150 
Q 2050 1481 1375 2016 
z
" transform="scale(0.015625)"/>
       </defs>
       <use xlink:href="#TimesNewRomanPSMT-34"/>
       <use xlink:href="#TimesNewRomanPSMT-37" x="50"/>
       <use xlink:href="#TimesNewRomanPSMT-2e" x="100"/>
       <use xlink:href="#TimesNewRomanPSMT-38" x="125"/>
      </g>
     </g>
    </g>
    <g id="ytick_5">
     <g id="line2d_25">
      <path d="M 116.312727 139.298008 
L 505.69 139.298008 
" clip-path="url(#p29312a0f2b)" style="fill: none; stroke: #d3d3d3; stroke-width: 0.8; stroke-linecap: square"/>
     </g>
     <g id="line2d_26">
      <g>
       <use xlink:href="#m9eba58e67e" x="116.312727" y="139.298008" style="stroke: #000000; stroke-width: 0.8"/>
      </g>
     </g>
     <g id="text_5">
      <!-- 48.0 -->
      <g transform="translate(74.312727 146.241758)scale(0.2 -0.2)">
       <defs>
        <path id="TimesNewRomanPSMT-30" d="M 231 2094 
Q 231 2819 450 3342 
Q 669 3866 1031 4122 
Q 1313 4325 1613 4325 
Q 2100 4325 2488 3828 
Q 2972 3213 2972 2159 
Q 2972 1422 2759 906 
Q 2547 391 2217 158 
Q 1888 -75 1581 -75 
Q 975 -75 572 641 
Q 231 1244 231 2094 
z
M 844 2016 
Q 844 1141 1059 588 
Q 1238 122 1591 122 
Q 1759 122 1940 273 
Q 2122 425 2216 781 
Q 2359 1319 2359 2297 
Q 2359 3022 2209 3506 
Q 2097 3866 1919 4016 
Q 1791 4119 1609 4119 
Q 1397 4119 1231 3928 
Q 1006 3669 925 3112 
Q 844 2556 844 2016 
z
" transform="scale(0.015625)"/>
       </defs>
       <use xlink:href="#TimesNewRomanPSMT-34"/>
       <use xlink:href="#TimesNewRomanPSMT-38" x="50"/>
       <use xlink:href="#TimesNewRomanPSMT-2e" x="100"/>
       <use xlink:href="#TimesNewRomanPSMT-30" x="125"/>
      </g>
     </g>
    </g>
    <g id="ytick_6">
     <g id="line2d_27">
      <path d="M 116.312727 87.968483 
L 505.69 87.968483 
" clip-path="url(#p29312a0f2b)" style="fill: none; stroke: #d3d3d3; stroke-width: 0.8; stroke-linecap: square"/>
     </g>
     <g id="line2d_28">
      <g>
       <use xlink:href="#m9eba58e67e" x="116.312727" y="87.968483" style="stroke: #000000; stroke-width: 0.8"/>
      </g>
     </g>
     <g id="text_6">
      <!-- 48.2 -->
      <g transform="translate(74.312727 94.912233)scale(0.2 -0.2)">
       <use xlink:href="#TimesNewRomanPSMT-34"/>
       <use xlink:href="#TimesNewRomanPSMT-38" x="50"/>
       <use xlink:href="#TimesNewRomanPSMT-2e" x="100"/>
       <use xlink:href="#TimesNewRomanPSMT-32" x="125"/>
      </g>
     </g>
    </g>
    <g id="text_7">
     <!-- maximum potential (mV) -->
     <g transform="translate(51.488949 372.171784)rotate(-90)scale(0.3 -0.3)">
      <defs>
       <path id="TimesNewRomanPSMT-6d" d="M 1050 2338 
Q 1363 2650 1419 2697 
Q 1559 2816 1721 2881 
Q 1884 2947 2044 2947 
Q 2313 2947 2506 2790 
Q 2700 2634 2766 2338 
Q 3088 2713 3309 2830 
Q 3531 2947 3766 2947 
Q 3994 2947 4170 2830 
Q 4347 2713 4450 2447 
Q 4519 2266 4519 1878 
L 4519 647 
Q 4519 378 4559 278 
Q 4591 209 4675 161 
Q 4759 113 4950 113 
L 4950 0 
L 3538 0 
L 3538 113 
L 3597 113 
Q 3781 113 3884 184 
Q 3956 234 3988 344 
Q 4000 397 4000 647 
L 4000 1878 
Q 4000 2228 3916 2372 
Q 3794 2572 3525 2572 
Q 3359 2572 3192 2489 
Q 3025 2406 2788 2181 
L 2781 2147 
L 2788 2013 
L 2788 647 
Q 2788 353 2820 281 
Q 2853 209 2943 161 
Q 3034 113 3253 113 
L 3253 0 
L 1806 0 
L 1806 113 
Q 2044 113 2133 169 
Q 2222 225 2256 338 
Q 2272 391 2272 647 
L 2272 1878 
Q 2272 2228 2169 2381 
Q 2031 2581 1784 2581 
Q 1616 2581 1450 2491 
Q 1191 2353 1050 2181 
L 1050 647 
Q 1050 366 1089 281 
Q 1128 197 1204 155 
Q 1281 113 1516 113 
L 1516 0 
L 100 0 
L 100 113 
Q 297 113 375 155 
Q 453 197 493 289 
Q 534 381 534 647 
L 534 1741 
Q 534 2213 506 2350 
Q 484 2453 437 2492 
Q 391 2531 309 2531 
Q 222 2531 100 2484 
L 53 2597 
L 916 2947 
L 1050 2947 
L 1050 2338 
z
" transform="scale(0.015625)"/>
       <path id="TimesNewRomanPSMT-61" d="M 1822 413 
Q 1381 72 1269 19 
Q 1100 -59 909 -59 
Q 613 -59 420 144 
Q 228 347 228 678 
Q 228 888 322 1041 
Q 450 1253 767 1440 
Q 1084 1628 1822 1897 
L 1822 2009 
Q 1822 2438 1686 2597 
Q 1550 2756 1291 2756 
Q 1094 2756 978 2650 
Q 859 2544 859 2406 
L 866 2225 
Q 866 2081 792 2003 
Q 719 1925 600 1925 
Q 484 1925 411 2006 
Q 338 2088 338 2228 
Q 338 2497 613 2722 
Q 888 2947 1384 2947 
Q 1766 2947 2009 2819 
Q 2194 2722 2281 2516 
Q 2338 2381 2338 1966 
L 2338 994 
Q 2338 584 2353 492 
Q 2369 400 2405 369 
Q 2441 338 2488 338 
Q 2538 338 2575 359 
Q 2641 400 2828 588 
L 2828 413 
Q 2478 -56 2159 -56 
Q 2006 -56 1915 50 
Q 1825 156 1822 413 
z
M 1822 616 
L 1822 1706 
Q 1350 1519 1213 1441 
Q 966 1303 859 1153 
Q 753 1003 753 825 
Q 753 600 887 451 
Q 1022 303 1197 303 
Q 1434 303 1822 616 
z
" transform="scale(0.015625)"/>
       <path id="TimesNewRomanPSMT-78" d="M 84 2863 
L 1431 2863 
L 1431 2747 
Q 1303 2747 1251 2703 
Q 1200 2659 1200 2588 
Q 1200 2513 1309 2356 
Q 1344 2306 1413 2200 
L 1616 1875 
L 1850 2200 
Q 2075 2509 2075 2591 
Q 2075 2656 2022 2701 
Q 1969 2747 1850 2747 
L 1850 2863 
L 2819 2863 
L 2819 2747 
Q 2666 2738 2553 2663 
Q 2400 2556 2134 2200 
L 1744 1678 
L 2456 653 
Q 2719 275 2831 198 
Q 2944 122 3122 113 
L 3122 0 
L 1772 0 
L 1772 113 
Q 1913 113 1991 175 
Q 2050 219 2050 291 
Q 2050 363 1850 653 
L 1431 1266 
L 972 653 
Q 759 369 759 316 
Q 759 241 829 180 
Q 900 119 1041 113 
L 1041 0 
L 106 0 
L 106 113 
Q 219 128 303 191 
Q 422 281 703 653 
L 1303 1450 
L 759 2238 
Q 528 2575 401 2661 
Q 275 2747 84 2747 
L 84 2863 
z
" transform="scale(0.015625)"/>
       <path id="TimesNewRomanPSMT-69" d="M 928 4444 
Q 1059 4444 1151 4351 
Q 1244 4259 1244 4128 
Q 1244 3997 1151 3903 
Q 1059 3809 928 3809 
Q 797 3809 703 3903 
Q 609 3997 609 4128 
Q 609 4259 701 4351 
Q 794 4444 928 4444 
z
M 1188 2947 
L 1188 647 
Q 1188 378 1227 289 
Q 1266 200 1342 156 
Q 1419 113 1622 113 
L 1622 0 
L 231 0 
L 231 113 
Q 441 113 512 153 
Q 584 194 626 287 
Q 669 381 669 647 
L 669 1750 
Q 669 2216 641 2353 
Q 619 2453 572 2492 
Q 525 2531 444 2531 
Q 356 2531 231 2484 
L 188 2597 
L 1050 2947 
L 1188 2947 
z
" transform="scale(0.015625)"/>
       <path id="TimesNewRomanPSMT-75" d="M 2709 2863 
L 2709 1128 
Q 2709 631 2732 520 
Q 2756 409 2807 365 
Q 2859 322 2928 322 
Q 3025 322 3147 375 
L 3191 266 
L 2334 -88 
L 2194 -88 
L 2194 519 
Q 1825 119 1631 15 
Q 1438 -88 1222 -88 
Q 981 -88 804 51 
Q 628 191 559 409 
Q 491 628 491 1028 
L 491 2306 
Q 491 2509 447 2587 
Q 403 2666 317 2708 
Q 231 2750 6 2747 
L 6 2863 
L 1009 2863 
L 1009 947 
Q 1009 547 1148 422 
Q 1288 297 1484 297 
Q 1619 297 1789 381 
Q 1959 466 2194 703 
L 2194 2325 
Q 2194 2569 2105 2655 
Q 2016 2741 1734 2747 
L 1734 2863 
L 2709 2863 
z
" transform="scale(0.015625)"/>
       <path id="TimesNewRomanPSMT-20" transform="scale(0.015625)"/>
       <path id="TimesNewRomanPSMT-70" d="M -6 2578 
L 875 2934 
L 994 2934 
L 994 2266 
Q 1216 2644 1439 2795 
Q 1663 2947 1909 2947 
Q 2341 2947 2628 2609 
Q 2981 2197 2981 1534 
Q 2981 794 2556 309 
Q 2206 -88 1675 -88 
Q 1444 -88 1275 -22 
Q 1150 25 994 166 
L 994 -706 
Q 994 -1000 1030 -1079 
Q 1066 -1159 1155 -1206 
Q 1244 -1253 1478 -1253 
L 1478 -1369 
L -22 -1369 
L -22 -1253 
L 56 -1253 
Q 228 -1256 350 -1188 
Q 409 -1153 442 -1076 
Q 475 -1000 475 -688 
L 475 2019 
Q 475 2297 450 2372 
Q 425 2447 370 2484 
Q 316 2522 222 2522 
Q 147 2522 31 2478 
L -6 2578 
z
M 994 2081 
L 994 1013 
Q 994 666 1022 556 
Q 1066 375 1236 237 
Q 1406 100 1666 100 
Q 1978 100 2172 344 
Q 2425 663 2425 1241 
Q 2425 1897 2138 2250 
Q 1938 2494 1663 2494 
Q 1513 2494 1366 2419 
Q 1253 2363 994 2081 
z
" transform="scale(0.015625)"/>
       <path id="TimesNewRomanPSMT-6f" d="M 1600 2947 
Q 2250 2947 2644 2453 
Q 2978 2031 2978 1484 
Q 2978 1100 2793 706 
Q 2609 313 2286 112 
Q 1963 -88 1566 -88 
Q 919 -88 538 428 
Q 216 863 216 1403 
Q 216 1797 411 2186 
Q 606 2575 925 2761 
Q 1244 2947 1600 2947 
z
M 1503 2744 
Q 1338 2744 1170 2645 
Q 1003 2547 900 2300 
Q 797 2053 797 1666 
Q 797 1041 1045 587 
Q 1294 134 1700 134 
Q 2003 134 2200 384 
Q 2397 634 2397 1244 
Q 2397 2006 2069 2444 
Q 1847 2744 1503 2744 
z
" transform="scale(0.015625)"/>
       <path id="TimesNewRomanPSMT-74" d="M 1031 3803 
L 1031 2863 
L 1700 2863 
L 1700 2644 
L 1031 2644 
L 1031 788 
Q 1031 509 1111 412 
Q 1191 316 1316 316 
Q 1419 316 1516 380 
Q 1613 444 1666 569 
L 1788 569 
Q 1678 263 1478 108 
Q 1278 -47 1066 -47 
Q 922 -47 784 33 
Q 647 113 581 261 
Q 516 409 516 719 
L 516 2644 
L 63 2644 
L 63 2747 
Q 234 2816 414 2980 
Q 594 3144 734 3369 
Q 806 3488 934 3803 
L 1031 3803 
z
" transform="scale(0.015625)"/>
       <path id="TimesNewRomanPSMT-65" d="M 681 1784 
Q 678 1147 991 784 
Q 1303 422 1725 422 
Q 2006 422 2214 576 
Q 2422 731 2563 1106 
L 2659 1044 
Q 2594 616 2278 264 
Q 1963 -88 1488 -88 
Q 972 -88 605 314 
Q 238 716 238 1394 
Q 238 2128 614 2539 
Q 991 2950 1559 2950 
Q 2041 2950 2350 2633 
Q 2659 2316 2659 1784 
L 681 1784 
z
M 681 1966 
L 2006 1966 
Q 1991 2241 1941 2353 
Q 1863 2528 1708 2628 
Q 1553 2728 1384 2728 
Q 1125 2728 920 2526 
Q 716 2325 681 1966 
z
" transform="scale(0.015625)"/>
       <path id="TimesNewRomanPSMT-6e" d="M 1034 2341 
Q 1538 2947 1994 2947 
Q 2228 2947 2397 2830 
Q 2566 2713 2666 2444 
Q 2734 2256 2734 1869 
L 2734 647 
Q 2734 375 2778 278 
Q 2813 200 2889 156 
Q 2966 113 3172 113 
L 3172 0 
L 1756 0 
L 1756 113 
L 1816 113 
Q 2016 113 2095 173 
Q 2175 234 2206 353 
Q 2219 400 2219 647 
L 2219 1819 
Q 2219 2209 2117 2386 
Q 2016 2563 1775 2563 
Q 1403 2563 1034 2156 
L 1034 647 
Q 1034 356 1069 288 
Q 1113 197 1189 155 
Q 1266 113 1500 113 
L 1500 0 
L 84 0 
L 84 113 
L 147 113 
Q 366 113 442 223 
Q 519 334 519 647 
L 519 1709 
Q 519 2225 495 2337 
Q 472 2450 423 2490 
Q 375 2531 294 2531 
Q 206 2531 84 2484 
L 38 2597 
L 900 2947 
L 1034 2947 
L 1034 2341 
z
" transform="scale(0.015625)"/>
       <path id="TimesNewRomanPSMT-6c" d="M 1184 4444 
L 1184 647 
Q 1184 378 1223 290 
Q 1263 203 1344 158 
Q 1425 113 1647 113 
L 1647 0 
L 244 0 
L 244 113 
Q 441 113 512 153 
Q 584 194 625 287 
Q 666 381 666 647 
L 666 3247 
Q 666 3731 644 3842 
Q 622 3953 573 3993 
Q 525 4034 450 4034 
Q 369 4034 244 3984 
L 191 4094 
L 1044 4444 
L 1184 4444 
z
" transform="scale(0.015625)"/>
       <path id="TimesNewRomanPSMT-28" d="M 1988 -1253 
L 1988 -1369 
Q 1516 -1131 1200 -813 
Q 750 -359 506 256 
Q 263 872 263 1534 
Q 263 2503 741 3301 
Q 1219 4100 1988 4444 
L 1988 4313 
Q 1603 4100 1356 3731 
Q 1109 3363 987 2797 
Q 866 2231 866 1616 
Q 866 947 969 400 
Q 1050 -31 1165 -292 
Q 1281 -553 1476 -793 
Q 1672 -1034 1988 -1253 
z
" transform="scale(0.015625)"/>
       <path id="TimesNewRomanPSMT-56" d="M 4544 4238 
L 4544 4122 
Q 4319 4081 4203 3978 
Q 4038 3825 3909 3509 
L 2431 -97 
L 2316 -97 
L 728 3556 
Q 606 3838 556 3900 
Q 478 3997 364 4051 
Q 250 4106 56 4122 
L 56 4238 
L 1788 4238 
L 1788 4122 
Q 1494 4094 1406 4022 
Q 1319 3950 1319 3838 
Q 1319 3681 1463 3350 
L 2541 866 
L 3541 3319 
Q 3688 3681 3688 3822 
Q 3688 3913 3597 3995 
Q 3506 4078 3291 4113 
Q 3275 4116 3238 4122 
L 3238 4238 
L 4544 4238 
z
" transform="scale(0.015625)"/>
       <path id="TimesNewRomanPSMT-29" d="M 144 4313 
L 144 4444 
Q 619 4209 934 3891 
Q 1381 3434 1625 2820 
Q 1869 2206 1869 1541 
Q 1869 572 1392 -226 
Q 916 -1025 144 -1369 
L 144 -1253 
Q 528 -1038 776 -670 
Q 1025 -303 1145 264 
Q 1266 831 1266 1447 
Q 1266 2113 1163 2663 
Q 1084 3094 967 3353 
Q 850 3613 656 3853 
Q 463 4094 144 4313 
z
" transform="scale(0.015625)"/>
      </defs>
      <use xlink:href="#TimesNewRomanPSMT-6d"/>
      <use xlink:href="#TimesNewRomanPSMT-61" x="77.783203"/>
      <use xlink:href="#TimesNewRomanPSMT-78" x="122.167969"/>
      <use xlink:href="#TimesNewRomanPSMT-69" x="172.167969"/>
      <use xlink:href="#TimesNewRomanPSMT-6d" x="199.951172"/>
      <use xlink:href="#TimesNewRomanPSMT-75" x="277.734375"/>
      <use xlink:href="#TimesNewRomanPSMT-6d" x="327.734375"/>
      <use xlink:href="#TimesNewRomanPSMT-20" x="405.517578"/>
      <use xlink:href="#TimesNewRomanPSMT-70" x="430.517578"/>
      <use xlink:href="#TimesNewRomanPSMT-6f" x="480.517578"/>
      <use xlink:href="#TimesNewRomanPSMT-74" x="530.517578"/>
      <use xlink:href="#TimesNewRomanPSMT-65" x="558.300781"/>
      <use xlink:href="#TimesNewRomanPSMT-6e" x="602.685547"/>
      <use xlink:href="#TimesNewRomanPSMT-74" x="652.685547"/>
      <use xlink:href="#TimesNewRomanPSMT-69" x="680.46875"/>
      <use xlink:href="#TimesNewRomanPSMT-61" x="708.251953"/>
      <use xlink:href="#TimesNewRomanPSMT-6c" x="752.636719"/>
      <use xlink:href="#TimesNewRomanPSMT-20" x="780.419922"/>
      <use xlink:href="#TimesNewRomanPSMT-28" x="805.419922"/>
      <use xlink:href="#TimesNewRomanPSMT-6d" x="838.720703"/>
      <use xlink:href="#TimesNewRomanPSMT-56" x="916.503906"/>
      <use xlink:href="#TimesNewRomanPSMT-29" x="988.720703"/>
     </g>
    </g>
   </g>
   <g id="line2d_29">
    <path d="M 134.011694 163.788901 
L 196.731106 110.676676 
L 279.641658 98.459726 
L 342.361069 103.153811 
L 405.080481 100.616449 
L 487.991033 103.633972 
" clip-path="url(#p29312a0f2b)" style="fill: none; stroke: #1f77b4; stroke-width: 1.5; stroke-linecap: square"/>
   </g>
   <g id="line2d_30">
    <path d="M 134.011694 339.279156 
L 196.731106 333.069655 
L 279.641658 331.069059 
L 342.361069 336.592338 
L 405.080481 333.644435 
L 487.991033 337.607981 
" clip-path="url(#p29312a0f2b)" style="fill: none; stroke: #ff7f0e; stroke-width: 1.5; stroke-linecap: square"/>
   </g>
   <g id="line2d_31">
    <path d="M 196.731106 351.320127 
L 196.731106 86.418754 
" clip-path="url(#p29312a0f2b)" style="fill: none; stroke-dasharray: 1.85,0.8; stroke-dashoffset: 0; stroke: #000000; stroke-width: 0.5"/>
   </g>
   <g id="patch_3">
    <path d="M 116.312727 351.320127 
L 116.312727 86.418754 
" style="fill: none; stroke: #000000; stroke-width: 0.8; stroke-linejoin: miter; stroke-linecap: square"/>
   </g>
   <g id="patch_4">
    <path d="M 505.69 351.320127 
L 505.69 86.418754 
" style="fill: none; stroke: #000000; stroke-width: 0.8; stroke-linejoin: miter; stroke-linecap: square"/>
   </g>
   <g id="patch_5">
    <path d="M 116.312727 351.320127 
L 505.69 351.320127 
" style="fill: none; stroke: #000000; stroke-width: 0.8; stroke-linejoin: miter; stroke-linecap: square"/>
   </g>
   <g id="patch_6">
    <path d="M 116.312727 86.418754 
L 505.69 86.418754 
" style="fill: none; stroke: #000000; stroke-width: 0.8; stroke-linejoin: miter; stroke-linecap: square"/>
   </g>
  </g>
  <g id="axes_2">
   <g id="patch_7">
    <path d="M 640.402727 351.320127 
L 1029.78 351.320127 
L 1029.78 86.418754 
L 640.402727 86.418754 
z
" style="fill: #ffffff"/>
   </g>
   <g id="matplotlib.axis_3">
    <g id="xtick_17">
     <g id="line2d_32">
      <g>
       <use xlink:href="#m47a1475474" x="658.101694" y="351.320127" style="stroke: #000000; stroke-width: 0.8"/>
      </g>
     </g>
    </g>
    <g id="xtick_18">
     <g id="line2d_33">
      <g>
       <use xlink:href="#m47a1475474" x="866.451069" y="351.320127" style="stroke: #000000; stroke-width: 0.8"/>
      </g>
     </g>
    </g>
    <g id="xtick_19">
     <g id="line2d_34">
      <g>
       <use xlink:href="#meae676be6f" x="648.56815" y="351.320127" style="stroke: #000000; stroke-width: 0.6"/>
      </g>
     </g>
    </g>
    <g id="xtick_20">
     <g id="line2d_35">
      <g>
       <use xlink:href="#meae676be6f" x="720.821106" y="351.320127" style="stroke: #000000; stroke-width: 0.6"/>
      </g>
     </g>
    </g>
    <g id="xtick_21">
     <g id="line2d_36">
      <g>
       <use xlink:href="#meae676be6f" x="757.50961" y="351.320127" style="stroke: #000000; stroke-width: 0.6"/>
      </g>
     </g>
    </g>
    <g id="xtick_22">
     <g id="line2d_37">
      <g>
       <use xlink:href="#meae676be6f" x="783.540517" y="351.320127" style="stroke: #000000; stroke-width: 0.6"/>
      </g>
     </g>
    </g>
    <g id="xtick_23">
     <g id="line2d_38">
      <g>
       <use xlink:href="#meae676be6f" x="803.731658" y="351.320127" style="stroke: #000000; stroke-width: 0.6"/>
      </g>
     </g>
    </g>
    <g id="xtick_24">
     <g id="line2d_39">
      <g>
       <use xlink:href="#meae676be6f" x="820.229021" y="351.320127" style="stroke: #000000; stroke-width: 0.6"/>
      </g>
     </g>
    </g>
    <g id="xtick_25">
     <g id="line2d_40">
      <g>
       <use xlink:href="#meae676be6f" x="834.177343" y="351.320127" style="stroke: #000000; stroke-width: 0.6"/>
      </g>
     </g>
    </g>
    <g id="xtick_26">
     <g id="line2d_41">
      <g>
       <use xlink:href="#meae676be6f" x="846.259929" y="351.320127" style="stroke: #000000; stroke-width: 0.6"/>
      </g>
     </g>
    </g>
    <g id="xtick_27">
     <g id="line2d_42">
      <g>
       <use xlink:href="#meae676be6f" x="856.917525" y="351.320127" style="stroke: #000000; stroke-width: 0.6"/>
      </g>
     </g>
    </g>
    <g id="xtick_28">
     <g id="line2d_43">
      <g>
       <use xlink:href="#meae676be6f" x="929.170481" y="351.320127" style="stroke: #000000; stroke-width: 0.6"/>
      </g>
     </g>
    </g>
    <g id="xtick_29">
     <g id="line2d_44">
      <g>
       <use xlink:href="#meae676be6f" x="965.858985" y="351.320127" style="stroke: #000000; stroke-width: 0.6"/>
      </g>
     </g>
    </g>
    <g id="xtick_30">
     <g id="line2d_45">
      <g>
       <use xlink:href="#meae676be6f" x="991.889892" y="351.320127" style="stroke: #000000; stroke-width: 0.6"/>
      </g>
     </g>
    </g>
    <g id="xtick_31">
     <g id="line2d_46">
      <g>
       <use xlink:href="#meae676be6f" x="1012.081033" y="351.320127" style="stroke: #000000; stroke-width: 0.6"/>
      </g>
     </g>
    </g>
    <g id="xtick_32">
     <g id="line2d_47">
      <g>
       <use xlink:href="#meae676be6f" x="1028.578396" y="351.320127" style="stroke: #000000; stroke-width: 0.6"/>
      </g>
     </g>
    </g>
   </g>
   <g id="matplotlib.axis_4">
    <g id="ytick_7">
     <g id="line2d_48">
      <path d="M 640.402727 300.333335 
L 1029.78 300.333335 
" clip-path="url(#pa3f2bdd0f9)" style="fill: none; stroke: #d3d3d3; stroke-width: 0.8; stroke-linecap: square"/>
     </g>
     <g id="line2d_49">
      <g>
       <use xlink:href="#m9eba58e67e" x="640.402727" y="300.333335" style="stroke: #000000; stroke-width: 0.8"/>
      </g>
     </g>
     <g id="text_8">
      <!-- 10 -->
      <g transform="translate(613.402727 307.277085)scale(0.2 -0.2)">
       <defs>
        <path id="TimesNewRomanPSMT-31" d="M 750 3822 
L 1781 4325 
L 1884 4325 
L 1884 747 
Q 1884 391 1914 303 
Q 1944 216 2037 169 
Q 2131 122 2419 116 
L 2419 0 
L 825 0 
L 825 116 
Q 1125 122 1212 167 
Q 1300 213 1334 289 
Q 1369 366 1369 747 
L 1369 3034 
Q 1369 3497 1338 3628 
Q 1316 3728 1258 3775 
Q 1200 3822 1119 3822 
Q 1003 3822 797 3725 
L 750 3822 
z
" transform="scale(0.015625)"/>
       </defs>
       <use xlink:href="#TimesNewRomanPSMT-31"/>
       <use xlink:href="#TimesNewRomanPSMT-30" x="50"/>
      </g>
     </g>
    </g>
    <g id="ytick_8">
     <g id="line2d_50">
      <path d="M 640.402727 247.038977 
L 1029.78 247.038977 
" clip-path="url(#pa3f2bdd0f9)" style="fill: none; stroke: #d3d3d3; stroke-width: 0.8; stroke-linecap: square"/>
     </g>
     <g id="line2d_51">
      <g>
       <use xlink:href="#m9eba58e67e" x="640.402727" y="247.038977" style="stroke: #000000; stroke-width: 0.8"/>
      </g>
     </g>
     <g id="text_9">
      <!-- 15 -->
      <g transform="translate(613.402727 253.982727)scale(0.2 -0.2)">
       <defs>
        <path id="TimesNewRomanPSMT-35" d="M 2778 4238 
L 2534 3706 
L 1259 3706 
L 981 3138 
Q 1809 3016 2294 2522 
Q 2709 2097 2709 1522 
Q 2709 1188 2573 903 
Q 2438 619 2231 419 
Q 2025 219 1772 97 
Q 1413 -75 1034 -75 
Q 653 -75 479 54 
Q 306 184 306 341 
Q 306 428 378 495 
Q 450 563 559 563 
Q 641 563 702 538 
Q 763 513 909 409 
Q 1144 247 1384 247 
Q 1750 247 2026 523 
Q 2303 800 2303 1197 
Q 2303 1581 2056 1914 
Q 1809 2247 1375 2428 
Q 1034 2569 447 2591 
L 1259 4238 
L 2778 4238 
z
" transform="scale(0.015625)"/>
       </defs>
       <use xlink:href="#TimesNewRomanPSMT-31"/>
       <use xlink:href="#TimesNewRomanPSMT-35" x="50"/>
      </g>
     </g>
    </g>
    <g id="ytick_9">
     <g id="line2d_52">
      <path d="M 640.402727 193.744618 
L 1029.78 193.744618 
" clip-path="url(#pa3f2bdd0f9)" style="fill: none; stroke: #d3d3d3; stroke-width: 0.8; stroke-linecap: square"/>
     </g>
     <g id="line2d_53">
      <g>
       <use xlink:href="#m9eba58e67e" x="640.402727" y="193.744618" style="stroke: #000000; stroke-width: 0.8"/>
      </g>
     </g>
     <g id="text_10">
      <!-- 20 -->
      <g transform="translate(613.402727 200.688368)scale(0.2 -0.2)">
       <use xlink:href="#TimesNewRomanPSMT-32"/>
       <use xlink:href="#TimesNewRomanPSMT-30" x="50"/>
      </g>
     </g>
    </g>
    <g id="ytick_10">
     <g id="line2d_54">
      <path d="M 640.402727 140.45026 
L 1029.78 140.45026 
" clip-path="url(#pa3f2bdd0f9)" style="fill: none; stroke: #d3d3d3; stroke-width: 0.8; stroke-linecap: square"/>
     </g>
     <g id="line2d_55">
      <g>
       <use xlink:href="#m9eba58e67e" x="640.402727" y="140.45026" style="stroke: #000000; stroke-width: 0.8"/>
      </g>
     </g>
     <g id="text_11">
      <!-- 25 -->
      <g transform="translate(613.402727 147.39401)scale(0.2 -0.2)">
       <use xlink:href="#TimesNewRomanPSMT-32"/>
       <use xlink:href="#TimesNewRomanPSMT-35" x="50"/>
      </g>
     </g>
    </g>
    <g id="ytick_11">
     <g id="line2d_56">
      <path d="M 640.402727 87.155901 
L 1029.78 87.155901 
" clip-path="url(#pa3f2bdd0f9)" style="fill: none; stroke: #d3d3d3; stroke-width: 0.8; stroke-linecap: square"/>
     </g>
     <g id="line2d_57">
      <g>
       <use xlink:href="#m9eba58e67e" x="640.402727" y="87.155901" style="stroke: #000000; stroke-width: 0.8"/>
      </g>
     </g>
     <g id="text_12">
      <!-- 30 -->
      <g transform="translate(613.402727 94.099651)scale(0.2 -0.2)">
       <defs>
        <path id="TimesNewRomanPSMT-33" d="M 325 3431 
Q 506 3859 782 4092 
Q 1059 4325 1472 4325 
Q 1981 4325 2253 3994 
Q 2459 3747 2459 3466 
Q 2459 3003 1878 2509 
Q 2269 2356 2469 2072 
Q 2669 1788 2669 1403 
Q 2669 853 2319 450 
Q 1863 -75 997 -75 
Q 569 -75 414 31 
Q 259 138 259 259 
Q 259 350 332 419 
Q 406 488 509 488 
Q 588 488 669 463 
Q 722 447 909 348 
Q 1097 250 1169 231 
Q 1284 197 1416 197 
Q 1734 197 1970 444 
Q 2206 691 2206 1028 
Q 2206 1275 2097 1509 
Q 2016 1684 1919 1775 
Q 1784 1900 1550 2001 
Q 1316 2103 1072 2103 
L 972 2103 
L 972 2197 
Q 1219 2228 1467 2375 
Q 1716 2522 1828 2728 
Q 1941 2934 1941 3181 
Q 1941 3503 1739 3701 
Q 1538 3900 1238 3900 
Q 753 3900 428 3381 
L 325 3431 
z
" transform="scale(0.015625)"/>
       </defs>
       <use xlink:href="#TimesNewRomanPSMT-33"/>
       <use xlink:href="#TimesNewRomanPSMT-30" x="50"/>
      </g>
     </g>
    </g>
    <g id="text_13">
     <!-- ∫ V&gt;1mV (10⁶ μm³) -->
     <g transform="translate(575.522699 336.687409)rotate(-90)scale(0.3 -0.3)">
      <defs>
       <path id="TimesNewRomanPSMT-222b" d="M 625 2797 
L 681 4613 
Q 706 5094 838 5409 
Q 922 5619 1069 5720 
Q 1216 5822 1359 5822 
Q 1516 5822 1633 5717 
Q 1750 5613 1750 5488 
Q 1750 5341 1667 5252 
Q 1584 5163 1463 5163 
Q 1353 5163 1225 5275 
Q 1153 5338 1100 5338 
Q 1047 5338 1011 5292 
Q 975 5247 975 5138 
Q 975 5009 1003 4684 
Q 1119 3400 1119 2613 
Q 1119 2394 1069 769 
Q 1044 -153 788 -478 
Q 619 -688 369 -688 
Q 206 -688 103 -581 
Q 0 -475 0 -309 
Q 0 -169 79 -84 
Q 159 0 281 0 
Q 406 0 497 -100 
Q 588 -200 650 -200 
Q 703 -200 737 -156 
Q 772 -113 772 -9 
Q 772 122 744 366 
Q 691 813 663 1422 
Q 625 2200 625 2797 
z
" transform="scale(0.015625)"/>
       <path id="TimesNewRomanPSMT-3e" d="M 3478 2041 
L 116 584 
L 116 853 
L 3013 2109 
L 116 3378 
L 116 3663 
L 3478 2194 
L 3478 2041 
z
" transform="scale(0.015625)"/>
       <path id="TimesNewRomanPSMT-2076" d="M 1734 4222 
Q 1322 4209 1050 3976 
Q 778 3744 628 3359 
Q 719 3403 826 3442 
Q 934 3481 1094 3481 
Q 1231 3481 1357 3437 
Q 1484 3394 1579 3309 
Q 1675 3225 1733 3098 
Q 1791 2972 1791 2809 
Q 1791 2644 1733 2503 
Q 1675 2363 1565 2256 
Q 1456 2150 1300 2089 
Q 1144 2028 947 2028 
Q 763 2028 613 2104 
Q 463 2181 355 2309 
Q 247 2438 187 2605 
Q 128 2772 128 2950 
Q 128 3184 228 3428 
Q 328 3672 528 3872 
Q 728 4072 1029 4198 
Q 1331 4325 1734 4325 
L 1734 4222 
z
M 581 3181 
Q 572 3131 564 3065 
Q 556 3000 556 2919 
Q 556 2809 579 2678 
Q 603 2547 656 2433 
Q 709 2319 798 2241 
Q 888 2163 1016 2163 
Q 1078 2163 1145 2184 
Q 1213 2206 1267 2259 
Q 1322 2313 1358 2405 
Q 1394 2497 1394 2638 
Q 1394 2716 1375 2831 
Q 1356 2947 1307 3053 
Q 1259 3159 1173 3234 
Q 1088 3309 953 3309 
Q 838 3309 748 3267 
Q 659 3225 581 3181 
z
" transform="scale(0.015625)"/>
       <path id="TimesNewRomanPSMT-3bc" d="M 2275 519 
Q 1709 -88 1291 -88 
Q 1022 -88 791 119 
L 791 -47 
Q 791 -334 878 -625 
Q 978 -947 978 -1050 
Q 978 -1194 887 -1287 
Q 797 -1381 663 -1381 
Q 525 -1381 444 -1272 
Q 363 -1163 363 -1009 
Q 363 -897 444 -603 
Q 538 -278 538 28 
L 538 2863 
L 1053 2863 
L 1053 1009 
Q 1053 728 1101 597 
Q 1150 466 1273 383 
Q 1397 300 1553 300 
Q 1831 300 2275 681 
L 2275 2863 
L 2794 2863 
L 2794 691 
Q 2794 416 2850 311 
Q 2906 206 3041 206 
Q 3253 206 3316 622 
L 3428 622 
Q 3369 -88 2828 -88 
Q 2594 -88 2439 70 
Q 2284 228 2275 519 
z
" transform="scale(0.015625)"/>
       <path id="TimesNewRomanPSMT-b3" d="M 172 3841 
Q 284 4072 425 4178 
Q 625 4325 891 4325 
Q 1178 4325 1343 4181 
Q 1509 4038 1509 3866 
Q 1509 3653 1181 3381 
Q 1406 3300 1520 3148 
Q 1634 2997 1634 2813 
Q 1634 2491 1367 2259 
Q 1100 2028 597 2028 
Q 334 2028 219 2103 
Q 138 2156 138 2225 
Q 138 2278 189 2322 
Q 241 2366 322 2366 
Q 409 2366 575 2291 
Q 741 2216 859 2216 
Q 1034 2216 1159 2339 
Q 1284 2463 1284 2628 
Q 1284 2769 1201 2897 
Q 1119 3025 988 3075 
Q 800 3147 653 3147 
L 559 3147 
L 559 3234 
Q 800 3234 964 3381 
Q 1128 3528 1128 3719 
Q 1128 3872 1025 3969 
Q 922 4066 750 4066 
Q 484 4066 291 3791 
L 172 3841 
z
" transform="scale(0.015625)"/>
      </defs>
      <use xlink:href="#TimesNewRomanPSMT-222b"/>
      <use xlink:href="#TimesNewRomanPSMT-20" x="27.392578"/>
      <use xlink:href="#TimesNewRomanPSMT-56" x="50.642578"/>
      <use xlink:href="#TimesNewRomanPSMT-3e" x="122.859375"/>
      <use xlink:href="#TimesNewRomanPSMT-31" x="179.255859"/>
      <use xlink:href="#TimesNewRomanPSMT-6d" x="229.255859"/>
      <use xlink:href="#TimesNewRomanPSMT-56" x="307.039062"/>
      <use xlink:href="#TimesNewRomanPSMT-20" x="377.505859"/>
      <use xlink:href="#TimesNewRomanPSMT-28" x="402.505859"/>
      <use xlink:href="#TimesNewRomanPSMT-31" x="435.806641"/>
      <use xlink:href="#TimesNewRomanPSMT-30" x="485.806641"/>
      <use xlink:href="#TimesNewRomanPSMT-2076" x="535.806641"/>
      <use xlink:href="#TimesNewRomanPSMT-20" x="565.787109"/>
      <use xlink:href="#TimesNewRomanPSMT-3bc" x="590.787109"/>
      <use xlink:href="#TimesNewRomanPSMT-6d" x="644.400391"/>
      <use xlink:href="#TimesNewRomanPSMT-b3" x="722.183594"/>
      <use xlink:href="#TimesNewRomanPSMT-29" x="752.164062"/>
     </g>
    </g>
   </g>
   <g id="line2d_58">
    <path d="M 658.101694 223.962839 
L 720.821106 119.530472 
L 803.731658 100.092718 
L 866.451069 99.005033 
L 929.170481 98.577717 
L 1012.081033 98.459726 
" clip-path="url(#pa3f2bdd0f9)" style="fill: none; stroke: #1f77b4; stroke-width: 1.5; stroke-linecap: square"/>
   </g>
   <g id="line2d_59">
    <path d="M 658.101694 339.279156 
L 720.821106 332.921432 
L 803.731658 332.710589 
L 866.451069 332.590244 
L 929.170481 332.663837 
L 1012.081033 333.452839 
" clip-path="url(#pa3f2bdd0f9)" style="fill: none; stroke: #ff7f0e; stroke-width: 1.5; stroke-linecap: square"/>
   </g>
   <g id="line2d_60">
    <path d="M 720.821106 351.320127 
L 720.821106 86.418754 
" clip-path="url(#pa3f2bdd0f9)" style="fill: none; stroke-dasharray: 1.85,0.8; stroke-dashoffset: 0; stroke: #000000; stroke-width: 0.5"/>
   </g>
   <g id="patch_8">
    <path d="M 640.402727 351.320127 
L 640.402727 86.418754 
" style="fill: none; stroke: #000000; stroke-width: 0.8; stroke-linejoin: miter; stroke-linecap: square"/>
   </g>
   <g id="patch_9">
    <path d="M 1029.78 351.320127 
L 1029.78 86.418754 
" style="fill: none; stroke: #000000; stroke-width: 0.8; stroke-linejoin: miter; stroke-linecap: square"/>
   </g>
   <g id="patch_10">
    <path d="M 640.402727 351.320127 
L 1029.78 351.320127 
" style="fill: none; stroke: #000000; stroke-width: 0.8; stroke-linejoin: miter; stroke-linecap: square"/>
   </g>
   <g id="patch_11">
    <path d="M 640.402727 86.418754 
L 1029.78 86.418754 
" style="fill: none; stroke: #000000; stroke-width: 0.8; stroke-linejoin: miter; stroke-linecap: square"/>
   </g>
  </g>
  <g id="axes_3">
   <g id="patch_12">
    <path d="M 116.312727 666.9215 
L 505.69 666.9215 
L 505.69 402.020127 
L 116.312727 402.020127 
z
" style="fill: #ffffff"/>
   </g>
   <g id="matplotlib.axis_5">
    <g id="xtick_33">
     <g id="line2d_61">
      <g>
       <use xlink:href="#m47a1475474" x="134.011694" y="666.9215" style="stroke: #000000; stroke-width: 0.8"/>
      </g>
     </g>
     <g id="text_14">
      <!-- $\mathdefault{10^{0}}$ -->
      <g transform="translate(119.911694 691.643375)scale(0.2 -0.2)">
       <use xlink:href="#TimesNewRomanPSMT-31" transform="translate(0 0.582813)"/>
       <use xlink:href="#TimesNewRomanPSMT-30" transform="translate(50 0.582813)"/>
       <use xlink:href="#TimesNewRomanPSMT-30" transform="translate(101.502813 60.695312)scale(0.7)"/>
      </g>
     </g>
    </g>
    <g id="xtick_34">
     <g id="line2d_62">
      <g>
       <use xlink:href="#m47a1475474" x="342.361069" y="666.9215" style="stroke: #000000; stroke-width: 0.8"/>
      </g>
     </g>
     <g id="text_15">
      <!-- $\mathdefault{10^{1}}$ -->
      <g transform="translate(328.261069 691.643375)scale(0.2 -0.2)">
       <use xlink:href="#TimesNewRomanPSMT-31" transform="translate(0 0.582813)"/>
       <use xlink:href="#TimesNewRomanPSMT-30" transform="translate(50 0.582813)"/>
       <use xlink:href="#TimesNewRomanPSMT-31" transform="translate(101.502813 60.695312)scale(0.7)"/>
      </g>
     </g>
    </g>
    <g id="xtick_35">
     <g id="line2d_63">
      <g>
       <use xlink:href="#meae676be6f" x="124.47815" y="666.9215" style="stroke: #000000; stroke-width: 0.6"/>
      </g>
     </g>
    </g>
    <g id="xtick_36">
     <g id="line2d_64">
      <g>
       <use xlink:href="#meae676be6f" x="196.731106" y="666.9215" style="stroke: #000000; stroke-width: 0.6"/>
      </g>
     </g>
    </g>
    <g id="xtick_37">
     <g id="line2d_65">
      <g>
       <use xlink:href="#meae676be6f" x="233.41961" y="666.9215" style="stroke: #000000; stroke-width: 0.6"/>
      </g>
     </g>
    </g>
    <g id="xtick_38">
     <g id="line2d_66">
      <g>
       <use xlink:href="#meae676be6f" x="259.450517" y="666.9215" style="stroke: #000000; stroke-width: 0.6"/>
      </g>
     </g>
    </g>
    <g id="xtick_39">
     <g id="line2d_67">
      <g>
       <use xlink:href="#meae676be6f" x="279.641658" y="666.9215" style="stroke: #000000; stroke-width: 0.6"/>
      </g>
     </g>
    </g>
    <g id="xtick_40">
     <g id="line2d_68">
      <g>
       <use xlink:href="#meae676be6f" x="296.139021" y="666.9215" style="stroke: #000000; stroke-width: 0.6"/>
      </g>
     </g>
    </g>
    <g id="xtick_41">
     <g id="line2d_69">
      <g>
       <use xlink:href="#meae676be6f" x="310.087343" y="666.9215" style="stroke: #000000; stroke-width: 0.6"/>
      </g>
     </g>
    </g>
    <g id="xtick_42">
     <g id="line2d_70">
      <g>
       <use xlink:href="#meae676be6f" x="322.169929" y="666.9215" style="stroke: #000000; stroke-width: 0.6"/>
      </g>
     </g>
    </g>
    <g id="xtick_43">
     <g id="line2d_71">
      <g>
       <use xlink:href="#meae676be6f" x="332.827525" y="666.9215" style="stroke: #000000; stroke-width: 0.6"/>
      </g>
     </g>
    </g>
    <g id="xtick_44">
     <g id="line2d_72">
      <g>
       <use xlink:href="#meae676be6f" x="405.080481" y="666.9215" style="stroke: #000000; stroke-width: 0.6"/>
      </g>
     </g>
    </g>
    <g id="xtick_45">
     <g id="line2d_73">
      <g>
       <use xlink:href="#meae676be6f" x="441.768985" y="666.9215" style="stroke: #000000; stroke-width: 0.6"/>
      </g>
     </g>
    </g>
    <g id="xtick_46">
     <g id="line2d_74">
      <g>
       <use xlink:href="#meae676be6f" x="467.799892" y="666.9215" style="stroke: #000000; stroke-width: 0.6"/>
      </g>
     </g>
    </g>
    <g id="xtick_47">
     <g id="line2d_75">
      <g>
       <use xlink:href="#meae676be6f" x="487.991033" y="666.9215" style="stroke: #000000; stroke-width: 0.6"/>
      </g>
     </g>
    </g>
    <g id="xtick_48">
     <g id="line2d_76">
      <g>
       <use xlink:href="#meae676be6f" x="504.488396" y="666.9215" style="stroke: #000000; stroke-width: 0.6"/>
      </g>
     </g>
    </g>
   </g>
   <g id="matplotlib.axis_6">
    <g id="ytick_12">
     <g id="line2d_77">
      <path d="M 116.312727 666.551584 
L 505.69 666.551584 
" clip-path="url(#p31d88d61cc)" style="fill: none; stroke: #d3d3d3; stroke-width: 0.8; stroke-linecap: square"/>
     </g>
     <g id="line2d_78">
      <g>
       <use xlink:href="#m9eba58e67e" x="116.312727" y="666.551584" style="stroke: #000000; stroke-width: 0.8"/>
      </g>
     </g>
     <g id="text_16">
      <!-- 8 -->
      <g transform="translate(99.312727 673.495334)scale(0.2 -0.2)">
       <use xlink:href="#TimesNewRomanPSMT-38"/>
      </g>
     </g>
    </g>
    <g id="ytick_13">
     <g id="line2d_79">
      <path d="M 116.312727 597.649049 
L 505.69 597.649049 
" clip-path="url(#p31d88d61cc)" style="fill: none; stroke: #d3d3d3; stroke-width: 0.8; stroke-linecap: square"/>
     </g>
     <g id="line2d_80">
      <g>
       <use xlink:href="#m9eba58e67e" x="116.312727" y="597.649049" style="stroke: #000000; stroke-width: 0.8"/>
      </g>
     </g>
     <g id="text_17">
      <!-- 10 -->
      <g transform="translate(89.312727 604.592799)scale(0.2 -0.2)">
       <use xlink:href="#TimesNewRomanPSMT-31"/>
       <use xlink:href="#TimesNewRomanPSMT-30" x="50"/>
      </g>
     </g>
    </g>
    <g id="ytick_14">
     <g id="line2d_81">
      <path d="M 116.312727 528.746514 
L 505.69 528.746514 
" clip-path="url(#p31d88d61cc)" style="fill: none; stroke: #d3d3d3; stroke-width: 0.8; stroke-linecap: square"/>
     </g>
     <g id="line2d_82">
      <g>
       <use xlink:href="#m9eba58e67e" x="116.312727" y="528.746514" style="stroke: #000000; stroke-width: 0.8"/>
      </g>
     </g>
     <g id="text_18">
      <!-- 12 -->
      <g transform="translate(89.312727 535.690264)scale(0.2 -0.2)">
       <use xlink:href="#TimesNewRomanPSMT-31"/>
       <use xlink:href="#TimesNewRomanPSMT-32" x="50"/>
      </g>
     </g>
    </g>
    <g id="ytick_15">
     <g id="line2d_83">
      <path d="M 116.312727 459.843979 
L 505.69 459.843979 
" clip-path="url(#p31d88d61cc)" style="fill: none; stroke: #d3d3d3; stroke-width: 0.8; stroke-linecap: square"/>
     </g>
     <g id="line2d_84">
      <g>
       <use xlink:href="#m9eba58e67e" x="116.312727" y="459.843979" style="stroke: #000000; stroke-width: 0.8"/>
      </g>
     </g>
     <g id="text_19">
      <!-- 14 -->
      <g transform="translate(89.312727 466.787729)scale(0.2 -0.2)">
       <use xlink:href="#TimesNewRomanPSMT-31"/>
       <use xlink:href="#TimesNewRomanPSMT-34" x="50"/>
      </g>
     </g>
    </g>
    <g id="text_20">
     <!-- ∫ J&gt;0.05A/m² (10⁶ μm³) -->
     <g transform="translate(51.432699 675.234095)rotate(-90)scale(0.3 -0.3)">
      <defs>
       <path id="TimesNewRomanPSMT-4a" d="M 638 4122 
L 638 4238 
L 2453 4238 
L 2453 4122 
L 2300 4122 
Q 2041 4122 1922 3969 
Q 1847 3869 1847 3488 
L 1847 1416 
Q 1847 938 1742 641 
Q 1638 344 1381 123 
Q 1125 -97 763 -97 
Q 469 -97 300 48 
Q 131 194 131 381 
Q 131 534 209 613 
Q 313 709 450 709 
Q 550 709 629 643 
Q 709 578 831 294 
Q 903 125 1016 125 
Q 1100 125 1173 228 
Q 1247 331 1247 594 
L 1247 3488 
Q 1247 3809 1206 3913 
Q 1175 3991 1075 4047 
Q 941 4122 791 4122 
L 638 4122 
z
" transform="scale(0.015625)"/>
       <path id="TimesNewRomanPSMT-41" d="M 2928 1419 
L 1288 1419 
L 1000 750 
Q 894 503 894 381 
Q 894 284 986 211 
Q 1078 138 1384 116 
L 1384 0 
L 50 0 
L 50 116 
Q 316 163 394 238 
Q 553 388 747 847 
L 2238 4334 
L 2347 4334 
L 3822 809 
Q 4000 384 4145 257 
Q 4291 131 4550 116 
L 4550 0 
L 2878 0 
L 2878 116 
Q 3131 128 3220 200 
Q 3309 272 3309 375 
Q 3309 513 3184 809 
L 2928 1419 
z
M 2841 1650 
L 2122 3363 
L 1384 1650 
L 2841 1650 
z
" transform="scale(0.015625)"/>
       <path id="TimesNewRomanPSMT-2f" d="M 1794 4444 
L 259 -88 
L 9 -88 
L 1544 4444 
L 1794 4444 
z
" transform="scale(0.015625)"/>
       <path id="TimesNewRomanPSMT-b2" d="M 1797 2550 
L 1606 2075 
L 63 2075 
L 63 2166 
Q 834 2766 1088 3144 
Q 1244 3375 1244 3591 
Q 1244 3781 1114 3911 
Q 984 4041 788 4041 
Q 609 4041 475 3948 
Q 341 3856 272 3672 
L 131 3672 
Q 175 3978 373 4151 
Q 572 4325 888 4325 
Q 1219 4325 1426 4144 
Q 1634 3963 1634 3738 
Q 1634 3531 1484 3297 
Q 1250 2931 563 2375 
L 1144 2375 
Q 1416 2375 1505 2412 
Q 1594 2450 1656 2550 
L 1797 2550 
z
" transform="scale(0.015625)"/>
      </defs>
      <use xlink:href="#TimesNewRomanPSMT-222b"/>
      <use xlink:href="#TimesNewRomanPSMT-20" x="27.392578"/>
      <use xlink:href="#TimesNewRomanPSMT-4a" x="52.392578"/>
      <use xlink:href="#TimesNewRomanPSMT-3e" x="91.308594"/>
      <use xlink:href="#TimesNewRomanPSMT-30" x="147.705078"/>
      <use xlink:href="#TimesNewRomanPSMT-2e" x="197.705078"/>
      <use xlink:href="#TimesNewRomanPSMT-30" x="222.705078"/>
      <use xlink:href="#TimesNewRomanPSMT-35" x="272.705078"/>
      <use xlink:href="#TimesNewRomanPSMT-41" x="322.705078"/>
      <use xlink:href="#TimesNewRomanPSMT-2f" x="394.921875"/>
      <use xlink:href="#TimesNewRomanPSMT-6d" x="422.705078"/>
      <use xlink:href="#TimesNewRomanPSMT-b2" x="500.488281"/>
      <use xlink:href="#TimesNewRomanPSMT-20" x="530.46875"/>
      <use xlink:href="#TimesNewRomanPSMT-28" x="555.46875"/>
      <use xlink:href="#TimesNewRomanPSMT-31" x="588.769531"/>
      <use xlink:href="#TimesNewRomanPSMT-30" x="638.769531"/>
      <use xlink:href="#TimesNewRomanPSMT-2076" x="688.769531"/>
      <use xlink:href="#TimesNewRomanPSMT-20" x="718.75"/>
      <use xlink:href="#TimesNewRomanPSMT-3bc" x="743.75"/>
      <use xlink:href="#TimesNewRomanPSMT-6d" x="797.363281"/>
      <use xlink:href="#TimesNewRomanPSMT-b3" x="875.146484"/>
      <use xlink:href="#TimesNewRomanPSMT-29" x="905.126953"/>
     </g>
    </g>
   </g>
   <g id="line2d_85">
    <path d="M 134.011694 654.880529 
L 196.731106 654.837524 
L 279.641658 654.24286 
L 342.361069 654.39737 
L 405.080481 654.4825 
L 487.991033 654.666628 
" clip-path="url(#p31d88d61cc)" style="fill: none; stroke: #1f77b4; stroke-width: 1.5; stroke-linecap: square"/>
   </g>
   <g id="line2d_86">
    <path d="M 134.011694 416.980807 
L 196.731106 414.158092 
L 279.641658 414.507505 
L 342.361069 414.589041 
L 405.080481 414.061099 
L 487.991033 414.339481 
" clip-path="url(#p31d88d61cc)" style="fill: none; stroke: #ff7f0e; stroke-width: 1.5; stroke-linecap: square"/>
   </g>
   <g id="line2d_87">
    <path d="M 196.731106 666.9215 
L 196.731106 402.020127 
" clip-path="url(#p31d88d61cc)" style="fill: none; stroke-dasharray: 1.85,0.8; stroke-dashoffset: 0; stroke: #000000; stroke-width: 0.5"/>
   </g>
   <g id="patch_13">
    <path d="M 116.312727 666.9215 
L 116.312727 402.020127 
" style="fill: none; stroke: #000000; stroke-width: 0.8; stroke-linejoin: miter; stroke-linecap: square"/>
   </g>
   <g id="patch_14">
    <path d="M 505.69 666.9215 
L 505.69 402.020127 
" style="fill: none; stroke: #000000; stroke-width: 0.8; stroke-linejoin: miter; stroke-linecap: square"/>
   </g>
   <g id="patch_15">
    <path d="M 116.312727 666.9215 
L 505.69 666.9215 
" style="fill: none; stroke: #000000; stroke-width: 0.8; stroke-linejoin: miter; stroke-linecap: square"/>
   </g>
   <g id="patch_16">
    <path d="M 116.312727 402.020127 
L 505.69 402.020127 
" style="fill: none; stroke: #000000; stroke-width: 0.8; stroke-linejoin: miter; stroke-linecap: square"/>
   </g>
  </g>
  <g id="axes_4">
   <g id="patch_17">
    <path d="M 640.402727 666.9215 
L 1029.78 666.9215 
L 1029.78 402.020127 
L 640.402727 402.020127 
z
" style="fill: #ffffff"/>
   </g>
   <g id="matplotlib.axis_7">
    <g id="xtick_49">
     <g id="line2d_88">
      <g>
       <use xlink:href="#m47a1475474" x="658.101694" y="666.9215" style="stroke: #000000; stroke-width: 0.8"/>
      </g>
     </g>
     <g id="text_21">
      <!-- $\mathdefault{10^{0}}$ -->
      <g transform="translate(644.001694 691.643375)scale(0.2 -0.2)">
       <use xlink:href="#TimesNewRomanPSMT-31" transform="translate(0 0.582813)"/>
       <use xlink:href="#TimesNewRomanPSMT-30" transform="translate(50 0.582813)"/>
       <use xlink:href="#TimesNewRomanPSMT-30" transform="translate(101.502813 60.695312)scale(0.7)"/>
      </g>
     </g>
    </g>
    <g id="xtick_50">
     <g id="line2d_89">
      <g>
       <use xlink:href="#m47a1475474" x="866.451069" y="666.9215" style="stroke: #000000; stroke-width: 0.8"/>
      </g>
     </g>
     <g id="text_22">
      <!-- $\mathdefault{10^{1}}$ -->
      <g transform="translate(852.351069 691.643375)scale(0.2 -0.2)">
       <use xlink:href="#TimesNewRomanPSMT-31" transform="translate(0 0.582813)"/>
       <use xlink:href="#TimesNewRomanPSMT-30" transform="translate(50 0.582813)"/>
       <use xlink:href="#TimesNewRomanPSMT-31" transform="translate(101.502813 60.695312)scale(0.7)"/>
      </g>
     </g>
    </g>
    <g id="xtick_51">
     <g id="line2d_90">
      <g>
       <use xlink:href="#meae676be6f" x="648.56815" y="666.9215" style="stroke: #000000; stroke-width: 0.6"/>
      </g>
     </g>
    </g>
    <g id="xtick_52">
     <g id="line2d_91">
      <g>
       <use xlink:href="#meae676be6f" x="720.821106" y="666.9215" style="stroke: #000000; stroke-width: 0.6"/>
      </g>
     </g>
    </g>
    <g id="xtick_53">
     <g id="line2d_92">
      <g>
       <use xlink:href="#meae676be6f" x="757.50961" y="666.9215" style="stroke: #000000; stroke-width: 0.6"/>
      </g>
     </g>
    </g>
    <g id="xtick_54">
     <g id="line2d_93">
      <g>
       <use xlink:href="#meae676be6f" x="783.540517" y="666.9215" style="stroke: #000000; stroke-width: 0.6"/>
      </g>
     </g>
    </g>
    <g id="xtick_55">
     <g id="line2d_94">
      <g>
       <use xlink:href="#meae676be6f" x="803.731658" y="666.9215" style="stroke: #000000; stroke-width: 0.6"/>
      </g>
     </g>
    </g>
    <g id="xtick_56">
     <g id="line2d_95">
      <g>
       <use xlink:href="#meae676be6f" x="820.229021" y="666.9215" style="stroke: #000000; stroke-width: 0.6"/>
      </g>
     </g>
    </g>
    <g id="xtick_57">
     <g id="line2d_96">
      <g>
       <use xlink:href="#meae676be6f" x="834.177343" y="666.9215" style="stroke: #000000; stroke-width: 0.6"/>
      </g>
     </g>
    </g>
    <g id="xtick_58">
     <g id="line2d_97">
      <g>
       <use xlink:href="#meae676be6f" x="846.259929" y="666.9215" style="stroke: #000000; stroke-width: 0.6"/>
      </g>
     </g>
    </g>
    <g id="xtick_59">
     <g id="line2d_98">
      <g>
       <use xlink:href="#meae676be6f" x="856.917525" y="666.9215" style="stroke: #000000; stroke-width: 0.6"/>
      </g>
     </g>
    </g>
    <g id="xtick_60">
     <g id="line2d_99">
      <g>
       <use xlink:href="#meae676be6f" x="929.170481" y="666.9215" style="stroke: #000000; stroke-width: 0.6"/>
      </g>
     </g>
    </g>
    <g id="xtick_61">
     <g id="line2d_100">
      <g>
       <use xlink:href="#meae676be6f" x="965.858985" y="666.9215" style="stroke: #000000; stroke-width: 0.6"/>
      </g>
     </g>
    </g>
    <g id="xtick_62">
     <g id="line2d_101">
      <g>
       <use xlink:href="#meae676be6f" x="991.889892" y="666.9215" style="stroke: #000000; stroke-width: 0.6"/>
      </g>
     </g>
    </g>
    <g id="xtick_63">
     <g id="line2d_102">
      <g>
       <use xlink:href="#meae676be6f" x="1012.081033" y="666.9215" style="stroke: #000000; stroke-width: 0.6"/>
      </g>
     </g>
    </g>
    <g id="xtick_64">
     <g id="line2d_103">
      <g>
       <use xlink:href="#meae676be6f" x="1028.578396" y="666.9215" style="stroke: #000000; stroke-width: 0.6"/>
      </g>
     </g>
    </g>
   </g>
   <g id="matplotlib.axis_8">
    <g id="ytick_16">
     <g id="line2d_104">
      <path d="M 640.402727 640.810434 
L 1029.78 640.810434 
" clip-path="url(#p9356b21ccb)" style="fill: none; stroke: #d3d3d3; stroke-width: 0.8; stroke-linecap: square"/>
     </g>
     <g id="line2d_105">
      <g>
       <use xlink:href="#m9eba58e67e" x="640.402727" y="640.810434" style="stroke: #000000; stroke-width: 0.8"/>
      </g>
     </g>
     <g id="text_23">
      <!-- −19 -->
      <g transform="translate(602.124602 647.754184)scale(0.2 -0.2)">
       <defs>
        <path id="TimesNewRomanPSMT-2212" d="M 3484 2000 
L 116 2000 
L 116 2256 
L 3484 2256 
L 3484 2000 
z
" transform="scale(0.015625)"/>
        <path id="TimesNewRomanPSMT-39" d="M 338 -88 
L 338 28 
Q 744 34 1094 217 
Q 1444 400 1770 856 
Q 2097 1313 2225 1859 
Q 1734 1544 1338 1544 
Q 891 1544 572 1889 
Q 253 2234 253 2806 
Q 253 3363 572 3797 
Q 956 4325 1575 4325 
Q 2097 4325 2469 3894 
Q 2925 3359 2925 2575 
Q 2925 1869 2578 1258 
Q 2231 647 1613 244 
Q 1109 -88 516 -88 
L 338 -88 
z
M 2275 2091 
Q 2331 2497 2331 2741 
Q 2331 3044 2228 3395 
Q 2125 3747 1936 3934 
Q 1747 4122 1506 4122 
Q 1228 4122 1018 3872 
Q 809 3622 809 3128 
Q 809 2469 1088 2097 
Q 1291 1828 1588 1828 
Q 1731 1828 1928 1897 
Q 2125 1966 2275 2091 
z
" transform="scale(0.015625)"/>
       </defs>
       <use xlink:href="#TimesNewRomanPSMT-2212"/>
       <use xlink:href="#TimesNewRomanPSMT-31" x="56.396484"/>
       <use xlink:href="#TimesNewRomanPSMT-39" x="106.396484"/>
      </g>
     </g>
    </g>
    <g id="ytick_17">
     <g id="line2d_106">
      <path d="M 640.402727 590.18658 
L 1029.78 590.18658 
" clip-path="url(#p9356b21ccb)" style="fill: none; stroke: #d3d3d3; stroke-width: 0.8; stroke-linecap: square"/>
     </g>
     <g id="line2d_107">
      <g>
       <use xlink:href="#m9eba58e67e" x="640.402727" y="590.18658" style="stroke: #000000; stroke-width: 0.8"/>
      </g>
     </g>
     <g id="text_24">
      <!-- −18 -->
      <g transform="translate(602.124602 597.13033)scale(0.2 -0.2)">
       <use xlink:href="#TimesNewRomanPSMT-2212"/>
       <use xlink:href="#TimesNewRomanPSMT-31" x="56.396484"/>
       <use xlink:href="#TimesNewRomanPSMT-38" x="106.396484"/>
      </g>
     </g>
    </g>
    <g id="ytick_18">
     <g id="line2d_108">
      <path d="M 640.402727 539.562725 
L 1029.78 539.562725 
" clip-path="url(#p9356b21ccb)" style="fill: none; stroke: #d3d3d3; stroke-width: 0.8; stroke-linecap: square"/>
     </g>
     <g id="line2d_109">
      <g>
       <use xlink:href="#m9eba58e67e" x="640.402727" y="539.562725" style="stroke: #000000; stroke-width: 0.8"/>
      </g>
     </g>
     <g id="text_25">
      <!-- −17 -->
      <g transform="translate(602.124602 546.506475)scale(0.2 -0.2)">
       <use xlink:href="#TimesNewRomanPSMT-2212"/>
       <use xlink:href="#TimesNewRomanPSMT-31" x="56.396484"/>
       <use xlink:href="#TimesNewRomanPSMT-37" x="106.396484"/>
      </g>
     </g>
    </g>
    <g id="ytick_19">
     <g id="line2d_110">
      <path d="M 640.402727 488.938871 
L 1029.78 488.938871 
" clip-path="url(#p9356b21ccb)" style="fill: none; stroke: #d3d3d3; stroke-width: 0.8; stroke-linecap: square"/>
     </g>
     <g id="line2d_111">
      <g>
       <use xlink:href="#m9eba58e67e" x="640.402727" y="488.938871" style="stroke: #000000; stroke-width: 0.8"/>
      </g>
     </g>
     <g id="text_26">
      <!-- −16 -->
      <g transform="translate(602.124602 495.882621)scale(0.2 -0.2)">
       <use xlink:href="#TimesNewRomanPSMT-2212"/>
       <use xlink:href="#TimesNewRomanPSMT-31" x="56.396484"/>
       <use xlink:href="#TimesNewRomanPSMT-36" x="106.396484"/>
      </g>
     </g>
    </g>
    <g id="ytick_20">
     <g id="line2d_112">
      <path d="M 640.402727 438.315017 
L 1029.78 438.315017 
" clip-path="url(#p9356b21ccb)" style="fill: none; stroke: #d3d3d3; stroke-width: 0.8; stroke-linecap: square"/>
     </g>
     <g id="line2d_113">
      <g>
       <use xlink:href="#m9eba58e67e" x="640.402727" y="438.315017" style="stroke: #000000; stroke-width: 0.8"/>
      </g>
     </g>
     <g id="text_27">
      <!-- −15 -->
      <g transform="translate(602.124602 445.258767)scale(0.2 -0.2)">
       <use xlink:href="#TimesNewRomanPSMT-2212"/>
       <use xlink:href="#TimesNewRomanPSMT-31" x="56.396484"/>
       <use xlink:href="#TimesNewRomanPSMT-35" x="106.396484"/>
      </g>
     </g>
    </g>
    <g id="text_28">
     <!-- return current (pA) -->
     <g style="fill: #1f77b4" transform="translate(575.578949 648.58097)rotate(-90)scale(0.3 -0.3)">
      <defs>
       <path id="TimesNewRomanPSMT-72" d="M 1038 2947 
L 1038 2303 
Q 1397 2947 1775 2947 
Q 1947 2947 2059 2842 
Q 2172 2738 2172 2600 
Q 2172 2478 2090 2393 
Q 2009 2309 1897 2309 
Q 1788 2309 1652 2417 
Q 1516 2525 1450 2525 
Q 1394 2525 1328 2463 
Q 1188 2334 1038 2041 
L 1038 669 
Q 1038 431 1097 309 
Q 1138 225 1241 169 
Q 1344 113 1538 113 
L 1538 0 
L 72 0 
L 72 113 
Q 291 113 397 181 
Q 475 231 506 341 
Q 522 394 522 644 
L 522 1753 
Q 522 2253 501 2348 
Q 481 2444 426 2487 
Q 372 2531 291 2531 
Q 194 2531 72 2484 
L 41 2597 
L 906 2947 
L 1038 2947 
z
" transform="scale(0.015625)"/>
       <path id="TimesNewRomanPSMT-63" d="M 2631 1088 
Q 2516 522 2178 217 
Q 1841 -88 1431 -88 
Q 944 -88 581 321 
Q 219 731 219 1428 
Q 219 2103 620 2525 
Q 1022 2947 1584 2947 
Q 2006 2947 2278 2723 
Q 2550 2500 2550 2259 
Q 2550 2141 2473 2067 
Q 2397 1994 2259 1994 
Q 2075 1994 1981 2113 
Q 1928 2178 1911 2362 
Q 1894 2547 1784 2644 
Q 1675 2738 1481 2738 
Q 1169 2738 978 2506 
Q 725 2200 725 1697 
Q 725 1184 976 792 
Q 1228 400 1656 400 
Q 1963 400 2206 609 
Q 2378 753 2541 1131 
L 2631 1088 
z
" transform="scale(0.015625)"/>
      </defs>
      <use xlink:href="#TimesNewRomanPSMT-72"/>
      <use xlink:href="#TimesNewRomanPSMT-65" x="33.300781"/>
      <use xlink:href="#TimesNewRomanPSMT-74" x="77.685547"/>
      <use xlink:href="#TimesNewRomanPSMT-75" x="105.46875"/>
      <use xlink:href="#TimesNewRomanPSMT-72" x="155.46875"/>
      <use xlink:href="#TimesNewRomanPSMT-6e" x="188.769531"/>
      <use xlink:href="#TimesNewRomanPSMT-20" x="238.769531"/>
      <use xlink:href="#TimesNewRomanPSMT-63" x="263.769531"/>
      <use xlink:href="#TimesNewRomanPSMT-75" x="308.154297"/>
      <use xlink:href="#TimesNewRomanPSMT-72" x="358.154297"/>
      <use xlink:href="#TimesNewRomanPSMT-72" x="391.455078"/>
      <use xlink:href="#TimesNewRomanPSMT-65" x="424.755859"/>
      <use xlink:href="#TimesNewRomanPSMT-6e" x="469.140625"/>
      <use xlink:href="#TimesNewRomanPSMT-74" x="519.140625"/>
      <use xlink:href="#TimesNewRomanPSMT-20" x="546.923828"/>
      <use xlink:href="#TimesNewRomanPSMT-28" x="571.923828"/>
      <use xlink:href="#TimesNewRomanPSMT-70" x="605.224609"/>
      <use xlink:href="#TimesNewRomanPSMT-41" x="655.224609"/>
      <use xlink:href="#TimesNewRomanPSMT-29" x="727.441406"/>
     </g>
    </g>
   </g>
   <g id="line2d_114">
    <path d="M 658.101694 414.061099 
L 720.821106 623.671489 
L 803.731658 650.031033 
L 866.451069 652.745611 
L 929.170481 654.880529 
L 1012.081033 652.208507 
" clip-path="url(#p9356b21ccb)" style="fill: none; stroke: #1f77b4; stroke-width: 1.5; stroke-linecap: square"/>
   </g>
   <g id="line2d_115">
    <path d="M 720.821106 666.9215 
L 720.821106 402.020127 
" clip-path="url(#p9356b21ccb)" style="fill: none; stroke-dasharray: 1.85,0.8; stroke-dashoffset: 0; stroke: #000000; stroke-width: 0.5"/>
   </g>
   <g id="patch_18">
    <path d="M 640.402727 666.9215 
L 640.402727 402.020127 
" style="fill: none; stroke: #000000; stroke-width: 0.8; stroke-linejoin: miter; stroke-linecap: square"/>
   </g>
   <g id="patch_19">
    <path d="M 1029.78 666.9215 
L 1029.78 402.020127 
" style="fill: none; stroke: #000000; stroke-width: 0.8; stroke-linejoin: miter; stroke-linecap: square"/>
   </g>
   <g id="patch_20">
    <path d="M 640.402727 666.9215 
L 1029.78 666.9215 
" style="fill: none; stroke: #000000; stroke-width: 0.8; stroke-linejoin: miter; stroke-linecap: square"/>
   </g>
   <g id="patch_21">
    <path d="M 640.402727 402.020127 
L 1029.78 402.020127 
" style="fill: none; stroke: #000000; stroke-width: 0.8; stroke-linejoin: miter; stroke-linecap: square"/>
   </g>
  </g>
  <g id="axes_5">
   <g id="matplotlib.axis_9">
    <g id="ytick_21">
     <g id="line2d_116">
      <defs>
       <path id="m8f5702b1f3" d="M 0 0 
L 3.5 0 
" style="stroke: #000000; stroke-width: 0.8"/>
      </defs>
      <g>
       <use xlink:href="#m8f5702b1f3" x="1029.78" y="666.9215" style="stroke: #000000; stroke-width: 0.8"/>
      </g>
     </g>
     <g id="text_29">
      <!-- −47.3 -->
      <g transform="translate(1036.78 673.86525)scale(0.2 -0.2)">
       <use xlink:href="#TimesNewRomanPSMT-2212"/>
       <use xlink:href="#TimesNewRomanPSMT-34" x="56.396484"/>
       <use xlink:href="#TimesNewRomanPSMT-37" x="106.396484"/>
       <use xlink:href="#TimesNewRomanPSMT-2e" x="156.396484"/>
       <use xlink:href="#TimesNewRomanPSMT-33" x="181.396484"/>
      </g>
     </g>
    </g>
    <g id="ytick_22">
     <g id="line2d_117">
      <g>
       <use xlink:href="#m8f5702b1f3" x="1029.78" y="534.470814" style="stroke: #000000; stroke-width: 0.8"/>
      </g>
     </g>
     <g id="text_30">
      <!-- −47.2 -->
      <g transform="translate(1036.78 541.414564)scale(0.2 -0.2)">
       <use xlink:href="#TimesNewRomanPSMT-2212"/>
       <use xlink:href="#TimesNewRomanPSMT-34" x="56.396484"/>
       <use xlink:href="#TimesNewRomanPSMT-37" x="106.396484"/>
       <use xlink:href="#TimesNewRomanPSMT-2e" x="156.396484"/>
       <use xlink:href="#TimesNewRomanPSMT-32" x="181.396484"/>
      </g>
     </g>
    </g>
    <g id="ytick_23">
     <g id="line2d_118">
      <g>
       <use xlink:href="#m8f5702b1f3" x="1029.78" y="402.020127" style="stroke: #000000; stroke-width: 0.8"/>
      </g>
     </g>
     <g id="text_31">
      <!-- −47.1 -->
      <g transform="translate(1036.78 408.963877)scale(0.2 -0.2)">
       <use xlink:href="#TimesNewRomanPSMT-2212"/>
       <use xlink:href="#TimesNewRomanPSMT-34" x="56.396484"/>
       <use xlink:href="#TimesNewRomanPSMT-37" x="106.396484"/>
       <use xlink:href="#TimesNewRomanPSMT-2e" x="156.396484"/>
       <use xlink:href="#TimesNewRomanPSMT-31" x="181.396484"/>
      </g>
     </g>
    </g>
    <g id="text_32">
     <!-- return voltage (mV) -->
     <g style="fill: #ff7f0e" transform="translate(1123.889375 654.426282)rotate(-90)scale(0.3 -0.3)">
      <defs>
       <path id="TimesNewRomanPSMT-76" d="M 53 2863 
L 1400 2863 
L 1400 2747 
L 1313 2747 
Q 1191 2747 1127 2687 
Q 1063 2628 1063 2528 
Q 1063 2419 1128 2269 
L 1794 688 
L 2463 2328 
Q 2534 2503 2534 2594 
Q 2534 2638 2509 2666 
Q 2475 2713 2422 2730 
Q 2369 2747 2206 2747 
L 2206 2863 
L 3141 2863 
L 3141 2747 
Q 2978 2734 2916 2681 
Q 2806 2588 2719 2369 
L 1703 -88 
L 1575 -88 
L 553 2328 
Q 484 2497 421 2570 
Q 359 2644 263 2694 
Q 209 2722 53 2747 
L 53 2863 
z
" transform="scale(0.015625)"/>
       <path id="TimesNewRomanPSMT-67" d="M 966 1044 
Q 703 1172 562 1401 
Q 422 1631 422 1909 
Q 422 2334 742 2640 
Q 1063 2947 1563 2947 
Q 1972 2947 2272 2747 
L 2878 2747 
Q 3013 2747 3034 2739 
Q 3056 2731 3066 2713 
Q 3084 2684 3084 2613 
Q 3084 2531 3069 2500 
Q 3059 2484 3036 2475 
Q 3013 2466 2878 2466 
L 2506 2466 
Q 2681 2241 2681 1891 
Q 2681 1491 2375 1206 
Q 2069 922 1553 922 
Q 1341 922 1119 984 
Q 981 866 932 777 
Q 884 688 884 625 
Q 884 572 936 522 
Q 988 472 1138 450 
Q 1225 438 1575 428 
Q 2219 413 2409 384 
Q 2700 344 2873 169 
Q 3047 -6 3047 -263 
Q 3047 -616 2716 -925 
Q 2228 -1381 1444 -1381 
Q 841 -1381 425 -1109 
Q 191 -953 191 -784 
Q 191 -709 225 -634 
Q 278 -519 444 -313 
Q 466 -284 763 25 
Q 600 122 533 198 
Q 466 275 466 372 
Q 466 481 555 628 
Q 644 775 966 1044 
z
M 1509 2797 
Q 1278 2797 1122 2612 
Q 966 2428 966 2047 
Q 966 1553 1178 1281 
Q 1341 1075 1591 1075 
Q 1828 1075 1981 1253 
Q 2134 1431 2134 1813 
Q 2134 2309 1919 2591 
Q 1759 2797 1509 2797 
z
M 934 0 
Q 788 -159 713 -296 
Q 638 -434 638 -550 
Q 638 -700 819 -813 
Q 1131 -1006 1722 -1006 
Q 2284 -1006 2551 -807 
Q 2819 -609 2819 -384 
Q 2819 -222 2659 -153 
Q 2497 -84 2016 -72 
Q 1313 -53 934 0 
z
" transform="scale(0.015625)"/>
      </defs>
      <use xlink:href="#TimesNewRomanPSMT-72"/>
      <use xlink:href="#TimesNewRomanPSMT-65" x="33.300781"/>
      <use xlink:href="#TimesNewRomanPSMT-74" x="77.685547"/>
      <use xlink:href="#TimesNewRomanPSMT-75" x="105.46875"/>
      <use xlink:href="#TimesNewRomanPSMT-72" x="155.46875"/>
      <use xlink:href="#TimesNewRomanPSMT-6e" x="188.769531"/>
      <use xlink:href="#TimesNewRomanPSMT-20" x="238.769531"/>
      <use xlink:href="#TimesNewRomanPSMT-76" x="263.769531"/>
      <use xlink:href="#TimesNewRomanPSMT-6f" x="313.769531"/>
      <use xlink:href="#TimesNewRomanPSMT-6c" x="363.769531"/>
      <use xlink:href="#TimesNewRomanPSMT-74" x="391.552734"/>
      <use xlink:href="#TimesNewRomanPSMT-61" x="419.335938"/>
      <use xlink:href="#TimesNewRomanPSMT-67" x="463.720703"/>
      <use xlink:href="#TimesNewRomanPSMT-65" x="513.720703"/>
      <use xlink:href="#TimesNewRomanPSMT-20" x="558.105469"/>
      <use xlink:href="#TimesNewRomanPSMT-28" x="583.105469"/>
      <use xlink:href="#TimesNewRomanPSMT-6d" x="616.40625"/>
      <use xlink:href="#TimesNewRomanPSMT-56" x="694.189453"/>
      <use xlink:href="#TimesNewRomanPSMT-29" x="766.40625"/>
     </g>
    </g>
   </g>
   <g id="line2d_119">
    <path d="M 658.101694 529.37878 
L 720.821106 509.004916 
L 803.731658 533.107212 
L 866.451069 493.646624 
L 929.170481 487.588352 
L 1012.081033 539.60833 
" clip-path="url(#p9356b21ccb)" style="fill: none; stroke: #ff7f0e; stroke-width: 1.5; stroke-linecap: square"/>
   </g>
   <g id="patch_22">
    <path d="M 640.402727 666.9215 
L 640.402727 402.020127 
" style="fill: none; stroke: #000000; stroke-width: 0.8; stroke-linejoin: miter; stroke-linecap: square"/>
   </g>
   <g id="patch_23">
    <path d="M 1029.78 666.9215 
L 1029.78 402.020127 
" style="fill: none; stroke: #000000; stroke-width: 0.8; stroke-linejoin: miter; stroke-linecap: square"/>
   </g>
   <g id="patch_24">
    <path d="M 640.402727 666.9215 
L 1029.78 666.9215 
" style="fill: none; stroke: #000000; stroke-width: 0.8; stroke-linejoin: miter; stroke-linecap: square"/>
   </g>
   <g id="patch_25">
    <path d="M 640.402727 402.020127 
L 1029.78 402.020127 
" style="fill: none; stroke: #000000; stroke-width: 0.8; stroke-linejoin: miter; stroke-linecap: square"/>
   </g>
  </g>
  <g id="text_33">
   <!--   -->
   <g transform="translate(571 42.175)scale(0.4 -0.4)">
    <use xlink:href="#TimesNewRomanPSMT-20"/>
   </g>
  </g>
  <g id="legend_1">
   <g id="patch_26">
    <path d="M 371.032031 66.473438 
L 780.967969 66.473438 
Q 786.967969 66.473438 786.967969 60.473438 
L 786.967969 21 
Q 786.967969 15 780.967969 15 
L 371.032031 15 
Q 365.032031 15 365.032031 21 
L 365.032031 60.473438 
Q 365.032031 66.473438 371.032031 66.473438 
z
" style="fill: #ffffff; opacity: 0.8; stroke: #cccccc; stroke-linejoin: miter"/>
   </g>
   <g id="line2d_120">
    <path d="M 377.032031 37.5 
L 407.032031 37.5 
L 437.032031 37.5 
" style="fill: none; stroke: #1f77b4; stroke-width: 1.5; stroke-linecap: square"/>
   </g>
   <g id="text_34">
    <!-- ground -->
    <g transform="translate(461.032031 48)scale(0.3 -0.3)">
     <defs>
      <path id="TimesNewRomanPSMT-64" d="M 2222 322 
Q 2013 103 1813 7 
Q 1613 -88 1381 -88 
Q 913 -88 563 304 
Q 213 697 213 1313 
Q 213 1928 600 2439 
Q 988 2950 1597 2950 
Q 1975 2950 2222 2709 
L 2222 3238 
Q 2222 3728 2198 3840 
Q 2175 3953 2125 3993 
Q 2075 4034 2000 4034 
Q 1919 4034 1784 3984 
L 1744 4094 
L 2597 4444 
L 2738 4444 
L 2738 1134 
Q 2738 631 2761 520 
Q 2784 409 2836 365 
Q 2888 322 2956 322 
Q 3041 322 3181 375 
L 3216 266 
L 2366 -88 
L 2222 -88 
L 2222 322 
z
M 2222 541 
L 2222 2016 
Q 2203 2228 2109 2403 
Q 2016 2578 1861 2667 
Q 1706 2756 1559 2756 
Q 1284 2756 1069 2509 
Q 784 2184 784 1559 
Q 784 928 1059 592 
Q 1334 256 1672 256 
Q 1956 256 2222 541 
z
" transform="scale(0.015625)"/>
     </defs>
     <use xlink:href="#TimesNewRomanPSMT-67"/>
     <use xlink:href="#TimesNewRomanPSMT-72" x="50"/>
     <use xlink:href="#TimesNewRomanPSMT-6f" x="83.300781"/>
     <use xlink:href="#TimesNewRomanPSMT-75" x="133.300781"/>
     <use xlink:href="#TimesNewRomanPSMT-6e" x="183.300781"/>
     <use xlink:href="#TimesNewRomanPSMT-64" x="233.300781"/>
    </g>
   </g>
   <g id="line2d_121">
    <path d="M 606.021094 37.5 
L 636.021094 37.5 
L 666.021094 37.5 
" style="fill: none; stroke: #ff7f0e; stroke-width: 1.5; stroke-linecap: square"/>
   </g>
   <g id="text_35">
    <!-- current -->
    <g transform="translate(690.021094 48)scale(0.3 -0.3)">
     <use xlink:href="#TimesNewRomanPSMT-63"/>
     <use xlink:href="#TimesNewRomanPSMT-75" x="44.384766"/>
     <use xlink:href="#TimesNewRomanPSMT-72" x="94.384766"/>
     <use xlink:href="#TimesNewRomanPSMT-72" x="127.685547"/>
     <use xlink:href="#TimesNewRomanPSMT-65" x="160.986328"/>
     <use xlink:href="#TimesNewRomanPSMT-6e" x="205.371094"/>
     <use xlink:href="#TimesNewRomanPSMT-74" x="255.371094"/>
    </g>
   </g>
  </g>
 </g>
 <defs>
  <clipPath id="p29312a0f2b">
   <rect x="116.312727" y="86.418754" width="389.377273" height="264.901373"/>
  </clipPath>
  <clipPath id="pa3f2bdd0f9">
   <rect x="640.402727" y="86.418754" width="389.377273" height="264.901373"/>
  </clipPath>
  <clipPath id="p31d88d61cc">
   <rect x="116.312727" y="402.020127" width="389.377273" height="264.901373"/>
  </clipPath>
  <clipPath id="p9356b21ccb">
   <rect x="640.402727" y="402.020127" width="389.377273" height="264.901373"/>
  </clipPath>
 </defs>
</svg>
